<svg width="48" height="35" viewBox="0 0 48 35" fill="none" xmlns="http://www.w3.org/2000/svg">
<g clip-path="url(#clip0_2_264)">
<path d="M28.9449 8.09448H19.0236V25.9213H28.9449V8.09448Z" fill="#FF5F00"/>
<path d="M19.6536 17.0079C19.6536 13.5433 21.2599 10.2362 23.9685 8.09448C19.0551 4.22046 11.9055 5.07085 8.03152 10.0157C4.189 14.9291 5.03939 22.0472 9.98427 25.9212C14.1103 29.1653 19.874 29.1653 24 25.9212C21.2599 23.7795 19.6536 20.4724 19.6536 17.0079Z" fill="#EB001B"/>
<path d="M42.3307 17.0079C42.3307 23.2756 37.2598 28.3464 30.9921 28.3464C28.4409 28.3464 25.9843 27.4961 24 25.9212C28.9134 22.0472 29.7638 14.9291 25.8898 9.98424C25.3228 9.29133 24.6929 8.62991 24 8.09448C28.9134 4.22046 36.063 5.07085 39.9055 10.0157C41.4803 12 42.3307 14.4567 42.3307 17.0079Z" fill="#F79E1B"/>
</g>
<defs>
<clipPath id="clip0_2_264">
<rect width="48" height="34.0158" fill="white"/>
</clipPath>
</defs>
</svg>
