<svg width="56" height="35" viewBox="0 0 56 35" fill="none" xmlns="http://www.w3.org/2000/svg">
<g clip-path="url(#clip0_2_263)">
<path d="M22.2249 9.53093L15.9407 24.5243H11.8407L8.74823 12.5589C8.56048 11.8219 8.39723 11.5519 7.82623 11.2414C6.89399 10.7357 5.35449 10.2612 4 9.96667L4.092 9.53093H10.6917C11.533 9.53093 12.2892 10.0909 12.4802 11.0597L14.1134 19.7356L18.1499 9.53068H22.2249V9.53093ZM38.2893 19.6291C38.3058 15.6719 32.8173 15.4539 32.8551 13.6862C32.8668 13.1482 33.3791 12.5762 34.5003 12.4302C35.0561 12.3574 36.5873 12.3019 38.3241 13.1012L39.0053 9.92167C38.0721 9.58293 36.8713 9.25693 35.3773 9.25693C31.5436 9.25693 28.8456 11.2949 28.8229 14.2132C28.7981 16.3716 30.7486 17.5761 32.2181 18.2934C33.7298 19.0279 34.2371 19.4999 34.2313 20.1569C34.2206 21.1626 33.0256 21.6066 31.9089 21.6241C29.9594 21.6541 28.8281 21.0966 27.9264 20.6774L27.2234 23.9621C28.1296 24.3778 29.8024 24.7406 31.5366 24.7588C35.6113 24.7588 38.2768 22.7461 38.2893 19.6291ZM48.4128 24.5243H52L48.8688 9.53093H45.5578C44.8133 9.53093 44.1853 9.96442 43.9073 10.6309L38.0871 24.5243H42.1598L42.9683 22.2849H47.9445L48.4128 24.5243ZM44.085 19.2119L46.1265 13.5824L47.3015 19.2119H44.085ZM27.7666 9.53093L24.5594 24.5243H20.6809L23.8894 9.53093H27.7666Z" fill="#1434CB"/>
</g>
<defs>
<clipPath id="clip0_2_263">
<rect width="48" height="15.5019" fill="white" transform="translate(4 9.25693)"/>
</clipPath>
</defs>
</svg>
