<svg width="39" height="35" viewBox="0 0 39 35" fill="none" xmlns="http://www.w3.org/2000/svg">
<g clip-path="url(#clip0_2_267)">
<path d="M35.2959 26.5473L33.5925 24.6394L31.8209 26.5473H20.8505V17.7574H17.3073L21.6682 7.87728H25.8928L27.3918 11.2842V7.87728H32.6385L33.5243 10.4666L34.4101 7.87728H38.4303V6.37822C38.4303 5.49242 37.6808 4.74289 36.795 4.74289H1.63533C0.749528 4.74289 0 5.49242 0 6.37822V27.6376C0 28.5234 0.749528 29.2729 1.63533 29.2729H36.8631C37.7489 29.2729 38.4985 28.5234 38.4985 27.6376V26.5473H35.2959Z" fill="#0071CE"/>
<path d="M35.7729 25.5252H38.4984L34.8871 21.6413L38.4984 17.8937H35.841L33.5243 20.3467L31.3439 17.8937H28.5502L32.1615 21.7095L28.5502 25.5252H31.2076L33.5243 23.0722L35.7729 25.5252Z" fill="#0071CE"/>
<path d="M24.1212 23.7536V22.5953H28.4139V20.8236H24.1212V19.6653H28.5502V17.8937H22.0089V25.5252H28.5502V23.7536H24.1212Z" fill="#0071CE"/>
<path d="M36.4543 16.7353H38.4984V9.03564L35.2959 9.10378L33.5924 13.8735L31.8208 9.10378H28.5502V16.7353H30.6625V11.3524L32.6385 16.7353H34.4783L36.4543 11.3524V16.7353Z" fill="#0071CE"/>
<path d="M25.1432 9.10379H22.4177L19.0107 16.8035H21.3275L21.9407 15.2363H25.4839L26.1653 16.8035H28.5502L25.1432 9.10379ZM22.6902 13.4647L23.7123 10.9435L24.7344 13.4647H22.6902Z" fill="#0071CE"/>
<path d="M36.5906 21.4369L38.4985 23.5492L38.5666 19.3246L36.5906 21.4369Z" fill="#0071CE"/>
</g>
<defs>
<clipPath id="clip0_2_267">
<rect width="38.5666" height="24.53" fill="white" transform="translate(0 4.74289)"/>
</clipPath>
</defs>
</svg>
