<svg id="OBJECTS" xmlns="http://www.w3.org/2000/svg" xmlns:xlink="http://www.w3.org/1999/xlink" viewBox="0 0 263.63 283.23"><defs><style>.cls-1{fill:none;}.cls-2,.cls-25{fill:#6dd6bb;}.cls-10,.cls-11,.cls-12,.cls-13,.cls-14,.cls-15,.cls-16,.cls-17,.cls-18,.cls-19,.cls-2,.cls-20,.cls-3,.cls-4,.cls-5,.cls-7,.cls-8,.cls-9{fill-rule:evenodd;}.cls-3,.cls-6{fill:#3c434e;}.cls-22,.cls-4{fill:#fff;}.cls-5{fill:#231f20;opacity:0.08;}.cls-7{fill:#cfdfec;}.cls-8{fill:#e6e0de;}.cls-9{fill:#f6cccf;}.cls-10{fill:url(#GradientFill_17);}.cls-11{fill:url(#GradientFill_17-2);}.cls-12{fill:url(#GradientFill_17-3);}.cls-13{fill:url(#GradientFill_17-4);}.cls-14{fill:url(#GradientFill_15);}.cls-15{fill:url(#GradientFill_20);}.cls-16{fill:url(#GradientFill_15-2);}.cls-17{fill:url(#GradientFill_15-3);}.cls-18{fill:url(#GradientFill_15-4);}.cls-19{fill:url(#GradientFill_20-2);}.cls-20{fill:url(#GradientFill_20-3);}.cls-21{clip-path:url(#clip-path);}.cls-23{fill:#007ce4;}.cls-24{fill:#232020;}.cls-26{font-size:12.33px;font-family:OpenSans-Light, Open Sans;font-weight:300;}</style><linearGradient id="GradientFill_17" x1="296.77" y1="365.64" x2="295.63" y2="371.75" gradientUnits="userSpaceOnUse"><stop offset="0" stop-color="#3e62ac"/><stop offset="1" stop-color="#1b2f59"/></linearGradient><linearGradient id="GradientFill_17-2" x1="290.86" y1="349.04" x2="284.01" y2="271.48" xlink:href="#GradientFill_17"/><linearGradient id="GradientFill_17-3" x1="266.88" y1="315.01" x2="258.59" y2="315.08" xlink:href="#GradientFill_17"/><linearGradient id="GradientFill_17-4" x1="299.87" y1="262.77" x2="272.45" y2="297.16" xlink:href="#GradientFill_17"/><linearGradient id="GradientFill_15" x1="287.96" y1="188.89" x2="295.69" y2="224.76" gradientUnits="userSpaceOnUse"><stop offset="0" stop-color="#ea6667"/><stop offset="1" stop-color="#b21555"/></linearGradient><linearGradient id="GradientFill_20" x1="284.09" y1="147.91" x2="284.09" y2="189.26" gradientUnits="userSpaceOnUse"><stop offset="0" stop-color="#3e62ac"/><stop offset="1" stop-color="#0a1432"/></linearGradient><linearGradient id="GradientFill_15-2" x1="279.34" y1="223.4" x2="260.21" y2="232.72" xlink:href="#GradientFill_15"/><linearGradient id="GradientFill_15-3" x1="287.85" y1="204.85" x2="276.62" y2="226.91" xlink:href="#GradientFill_15"/><linearGradient id="GradientFill_15-4" x1="315.16" y1="183.93" x2="309.96" y2="195.91" xlink:href="#GradientFill_15"/><linearGradient id="GradientFill_20-2" x1="289.66" y1="150.13" x2="289.66" y2="174.85" xlink:href="#GradientFill_20"/><linearGradient id="GradientFill_20-3" x1="274.79" y1="150.21" x2="274.79" y2="187.49" xlink:href="#GradientFill_20"/><clipPath id="clip-path" transform="translate(-90.44 -110.87)"><path class="cls-1" d="M196.64,176.46a35.29,35.29,0,0,1,34.79,29.4,3,3,0,0,0,2.9,2.47h0a3,3,0,0,0,2.9-3.44,41.18,41.18,0,0,0-81.21,0,2.94,2.94,0,0,0,2.89,3.44h0a3,3,0,0,0,2.9-2.47A35.28,35.28,0,0,1,196.64,176.46Z"/></clipPath></defs><title>img-score-and-more</title><path class="cls-2" d="M247.65,240.39q-.3-4.29-.29-8.31t.36-7.89a69.41,69.41,0,0,1,6.58-24.65A55.92,55.92,0,0,1,269,180.91a63.76,63.76,0,0,1,18.52-10.49,83.61,83.61,0,0,1,22.8-4.8c2.64-.19,5.31-.28,8-.25s5.41.16,8.09.4h0a1.09,1.09,0,0,1,.75.4,1.12,1.12,0,0,1,.26.8V167c-.11,1.05-2.52,23.44-13.43,43.68-11,20.46-30.74,38.73-65.45,30.69a1.14,1.14,0,0,1-.61-.38,1.24,1.24,0,0,1-.25-.64Zm78.53-72.87a117,117,0,0,0-14.13,6.91c2.92.52,9.54,1.75,12.52,2.7,1-4.76,1.44-8.24,1.61-9.61Zm-1.83,10.65h0c-3.43-1.12-12.39-2.68-13.72-2.91-3.73,2.16-7.92,4.8-12.38,8l23.24,6.11c1.23-4.09,2.17-7.89,2.88-11.15Zm-3.2,12.16-24-6.32a158.44,158.44,0,0,0-12.9,10.37c4.77,1.45,27.57,8.44,31.43,10.39a118.74,118.74,0,0,0,5.51-14.44Zm-6,15.4c-3.89-2-29.05-9.66-31.9-10.52-3.51,3.18-7.05,6.68-10.52,10.51l35.81,11.43.12.06a82.12,82.12,0,0,0,4.24-7q1.2-2.21,2.25-4.44Zm-7.1,12.38L272,206.58c-2.7,3-5.37,6.25-7.95,9.68,5.84,2,35.73,11.27,35.82,11.3a.57.57,0,0,1,.21.13,65.81,65.81,0,0,0,8-9.58Zm-8.84,10.37c-3.17-1-31.14-9.7-35.87-11.33-2.21,3-4.36,6.13-6.42,9.43,7.06,3.49,30.8,9.65,30.87,9.67a.52.52,0,0,1,.32.24,51.86,51.86,0,0,0,11.1-8Zm-12.31,8.63c-3.8-1-24.11-6.41-30.54-9.63q-2,3.21-3.83,6.63c2.71,1.07,14.85,5.73,22.7,6.53a.54.54,0,0,1,.46.38,47.44,47.44,0,0,0,11.21-3.91Zm-13.53,4.35c-8-1.25-19-5.5-21.34-6.42-.94,1.76-1.84,3.55-2.72,5.38a62.44,62.44,0,0,0,24.06,1Zm-24.68-2.2c.81-1.67,1.65-3.32,2.51-4.92A65.7,65.7,0,0,1,249,223.21c0,.35-.07.71-.1,1.07-.22,2.51-.34,5.1-.35,7.8q0,3.46.22,7.18Zm.56-18.78a.54.54,0,0,1,.46.47,87.21,87.21,0,0,0,2.18,12.11q1.8-3.27,3.7-6.35a102.9,102.9,0,0,1-3.5-18.78,70.6,70.6,0,0,0-2.84,12.55Zm3.44-14.31a.53.53,0,0,1,.36.46,102.42,102.42,0,0,0,3.29,18.87q3-4.75,6.22-9.07c-.63-1.85-4.24-12.82-4.75-21q-1.35,2.2-2.52,4.59a59.37,59.37,0,0,0-2.6,6.13Zm5.9-11.95a.55.55,0,0,1,.25.43c.28,7.38,3.46,17.6,4.49,20.74,2.55-3.37,5.17-6.53,7.83-9.51a57,57,0,0,1-5.58-20.34,54.65,54.65,0,0,0-7,8.68Zm7.88-9.56a.54.54,0,0,1,.15.37s.1,8.75,5.31,20c3.49-3.84,7-7.35,10.56-10.55-2.14-4.81-4.2-16.78-4.47-18.42a58,58,0,0,0-8.34,5.74c-1.1.91-2.18,1.86-3.21,2.86Zm12.5-9.13a.48.48,0,0,1,.06.18s2.1,12.79,4.29,18a160.7,160.7,0,0,1,13.06-10.52,59.82,59.82,0,0,1-1.49-13.92,72.44,72.44,0,0,0-7,2.21,65.48,65.48,0,0,0-8.9,4Zm17-6.5a.59.59,0,0,1,0,.13,59.41,59.41,0,0,0,1.36,13.38c4.53-3.23,8.81-5.93,12.6-8.13a39.2,39.2,0,0,1-.15-7.6A85.36,85.36,0,0,0,296,169Zm14.9-2.3v.09a37.31,37.31,0,0,0,.08,7,123.94,123.94,0,0,1,14.16-7q-3.41-.26-6.82-.29C315.83,166.49,313.35,166.56,310.87,166.73Z" transform="translate(-90.44 -110.87)"/><path class="cls-2" d="M182.93,233.49q.31-4.28.3-8.31c0-2.73-.14-5.36-.36-7.89a69.51,69.51,0,0,0-6.58-24.64A55.85,55.85,0,0,0,161.59,174a63.51,63.51,0,0,0-18.51-10.5,83.3,83.3,0,0,0-22.8-4.79c-2.65-.2-5.32-.28-8-.26s-5.41.16-8.1.4h0a1.13,1.13,0,0,0-.75.39,1.1,1.1,0,0,0-.25.81v.07c.11,1.05,2.52,23.44,13.43,43.68,11,20.47,30.73,38.74,65.45,30.69a1,1,0,0,0,.6-.38,1.06,1.06,0,0,0,.25-.64Zm-78.52-72.86a115.3,115.3,0,0,1,14.13,6.9c-2.92.52-9.55,1.75-12.52,2.7-1-4.76-1.45-8.24-1.61-9.6Zm1.83,10.64h0c3.44-1.12,12.39-2.68,13.73-2.92,3.72,2.16,7.92,4.8,12.38,8l-23.24,6.12c-1.24-4.09-2.18-7.89-2.88-11.16Zm3.19,12.17,24-6.33a162.4,162.4,0,0,1,12.9,10.37c-4.77,1.46-27.57,8.44-31.43,10.4a117.84,117.84,0,0,1-5.52-14.44Zm6,15.39c3.88-2,29-9.66,31.89-10.52,3.52,3.19,7.05,6.69,10.53,10.51L122,210.26l-.13.05c-1.54-2.28-2.95-4.64-4.24-7q-1.19-2.22-2.24-4.45Zm7.1,12.38,36.1-11.52c2.7,3,5.36,6.24,7.94,9.67-5.83,2-35.72,11.28-35.81,11.3a.5.5,0,0,0-.21.13,65.28,65.28,0,0,1-8-9.58Zm8.84,10.37c3.16-1,31.14-9.7,35.87-11.33,2.21,3,4.36,6.13,6.42,9.43-7.06,3.49-30.8,9.65-30.87,9.67a.51.51,0,0,0-.32.25,51.31,51.31,0,0,1-11.1-8Zm12.3,8.64c3.81-1,24.11-6.42,30.55-9.63q2,3.21,3.83,6.62c-2.71,1.07-14.86,5.73-22.7,6.53a.55.55,0,0,0-.46.39,48.43,48.43,0,0,1-11.22-3.91Zm13.54,4.35c8-1.26,19-5.5,21.34-6.42q1.39,2.63,2.72,5.37a62.65,62.65,0,0,1-24.06,1Zm24.68-2.2c-.82-1.68-1.65-3.32-2.52-4.93a64.36,64.36,0,0,0,2.28-11.13c0,.36.07.72.11,1.08q.33,3.75.35,7.79c0,2.32-.06,4.71-.22,7.19Zm-.56-18.79a.53.53,0,0,0-.46.47,87.58,87.58,0,0,1-2.19,12.11c-1.19-2.18-2.43-4.29-3.69-6.35a104.39,104.39,0,0,0,3.5-18.77,70.69,70.69,0,0,1,2.84,12.54Zm-3.45-14.3a.51.51,0,0,0-.35.46,101.18,101.18,0,0,1-3.3,18.86c-2-3.17-4.08-6.19-6.21-9.07.62-1.84,4.24-12.82,4.74-21,.9,1.47,1.75,3,2.53,4.6a58.42,58.42,0,0,1,2.59,6.13ZM172,187.33a.53.53,0,0,0-.25.42c-.28,7.39-3.46,17.61-4.5,20.75-2.54-3.37-5.16-6.54-7.83-9.52A57.09,57.09,0,0,0,165,178.64a54.29,54.29,0,0,1,7,8.69Zm-7.88-9.56a.57.57,0,0,0-.16.36s-.09,8.76-5.3,20c-3.49-3.84-7-7.35-10.56-10.55,2.13-4.81,4.19-16.78,4.47-18.41a59.28,59.28,0,0,1,8.34,5.73q1.65,1.36,3.21,2.87Zm-12.5-9.13a.49.49,0,0,0-.06.17s-2.11,12.79-4.29,18a164.67,164.67,0,0,0-13.06-10.52,60.39,60.39,0,0,0,1.49-13.91,73.26,73.26,0,0,1,7,2.2,67.36,67.36,0,0,1,8.9,4Zm-17-6.51a.61.61,0,0,0,0,.14,59.49,59.49,0,0,1-1.36,13.38c-4.54-3.24-8.81-5.93-12.61-8.13a38.36,38.36,0,0,0,.15-7.6,86.09,86.09,0,0,1,13.83,2.21Zm-14.89-2.29v.08a38.31,38.31,0,0,1-.08,7,125.66,125.66,0,0,0-14.16-7c2.26-.17,4.54-.27,6.82-.29C114.76,159.6,117.24,159.67,119.72,159.84Z" transform="translate(-90.44 -110.87)"/><path class="cls-3" d="M141.78,273.79a39.53,39.53,0,0,0-8.37-14.26c-8.67-9.9-14-21.53-8.69-26.35,5.11-4.65,17.39,9.39,22.69,38.48l-5.61,2.12Z" transform="translate(-90.44 -110.87)"/><path class="cls-4" d="M126.69,236.27a.44.44,0,0,1,0-.63.45.45,0,0,1,.63,0,32.12,32.12,0,0,1,2.77,2.82l-.67-2.47a.3.3,0,0,1,.57-.16l1,3.68c.75.9,1.58,1.95,2.45,3.15l-.3-3.07a.3.3,0,0,1,.59-.06l.41,4.12q1.33,1.92,2.72,4.3l-.17-2.68a.3.3,0,0,1,.28-.31.3.3,0,0,1,.32.28l.24,3.9c.92,1.69,1.84,3.54,2.71,5.55l.12-2.56a.31.31,0,0,1,.31-.29.29.29,0,0,1,.28.31l-.18,3.82c.78,1.92,1.51,4,2.16,6.17l.41-1.47a.3.3,0,0,1,.37-.21.29.29,0,0,1,.2.37l-.66,2.4c.47,1.69.9,3.45,1.26,5.3L145,267a.3.3,0,0,1,.37-.2.29.29,0,0,1,.19.38l-.8,2.49c.17.92.32,1.85.45,2.8l-.86.32c-.13-.95-.27-1.88-.44-2.8a11,11,0,0,0-2.84-1.67.28.28,0,0,1-.22-.35.3.3,0,0,1,.35-.23,9.23,9.23,0,0,1,2.55,1.4c-.13-.71-.28-1.42-.43-2.11a12.88,12.88,0,0,0-3.53-1.54.3.3,0,1,1,.11-.58,12.18,12.18,0,0,1,3.24,1.33c-.33-1.42-.7-2.78-1.09-4.09a27.86,27.86,0,0,0-5.86-1.4.3.3,0,0,1,0-.6,26,26,0,0,1,5.64,1.31c-.44-1.4-.9-2.73-1.39-4a27.1,27.1,0,0,0-7-1.58.3.3,0,1,1,0-.59,26.94,26.94,0,0,1,6.7,1.44c-.25-.63-.51-1.24-.76-1.83a28.69,28.69,0,0,0-8.38-2.11.3.3,0,0,1-.28-.32.31.31,0,0,1,.32-.27,29.56,29.56,0,0,1,8,1.91c-1-2.14-2-4.08-3-5.84a58.85,58.85,0,0,0-9.12-.84.3.3,0,0,1,0-.6,56.69,56.69,0,0,1,8.76.78c-.77-1.3-1.54-2.49-2.29-3.56-1.28-.08-6-.35-7.18-.34a.3.3,0,0,1,0-.6c1.06,0,5,.22,6.76.32-1-1.39-1.94-2.58-2.77-3.57-1.22,0-4.15,0-4.88.08a.3.3,0,0,1-.32-.27.3.3,0,0,1,.28-.32c.65,0,3-.07,4.41-.08A34.64,34.64,0,0,0,126.69,236.27Z" transform="translate(-90.44 -110.87)"/><path class="cls-2" d="M162,313.2c-3.48-5.5-10.88-14.71-25.34-24.16C113.74,274.1,96.73,254.82,105,244.12c8.07-10.5,41.55,11.69,68,64.92A61.64,61.64,0,0,1,162,313.2Z" transform="translate(-90.44 -110.87)"/><path class="cls-4" d="M166.71,308.62a14.1,14.1,0,0,0-4.64.45.3.3,0,0,1-.15-.58,15.71,15.71,0,0,1,4.46-.49c-.47-.88-.94-1.74-1.42-2.6-1-.06-4.36-.26-5.62-.24a.29.29,0,0,1-.3-.29.3.3,0,0,1,.29-.3c1.16,0,4,.14,5.29.21q-1.34-2.38-2.67-4.65a69.31,69.31,0,0,0-7.56.28.3.3,0,1,1,0-.59,71.62,71.62,0,0,1,7.25-.29q-1.35-2.26-2.7-4.41a96,96,0,0,0-10.8.39.31.31,0,0,1-.32-.27.29.29,0,0,1,.27-.32,97.87,97.87,0,0,1,10.46-.41c-1.19-1.87-2.37-3.67-3.56-5.4-1.43-.11-7.37-.5-11.89.76a.29.29,0,0,1-.36-.21.28.28,0,0,1,.2-.36c4.21-1.18,9.61-.95,11.62-.82-1.45-2.11-2.9-4.11-4.35-6-1.95,0-9.85.33-13.63,2.79a.3.3,0,1,1-.32-.5c3.67-2.39,11-2.8,13.51-2.87q-2.29-3-4.55-5.7a62.3,62.3,0,0,0-13.2,4.09.3.3,0,0,1-.39-.15.29.29,0,0,1,.15-.39,62.19,62.19,0,0,1,13-4.07c-.89-1.05-1.77-2.06-2.64-3a67.14,67.14,0,0,0-15.1,4.76.31.31,0,0,1-.39-.16.29.29,0,0,1,.15-.39,68.9,68.9,0,0,1,14.86-4.73q-3.12-3.45-6.08-6.29c-1.75.5-10.61,3.12-15.33,5.87a.31.31,0,0,1-.41-.11.29.29,0,0,1,.11-.4c4.53-2.64,12.78-5.15,15.13-5.84-1.14-1.1-2.27-2.13-3.37-3.1A86.86,86.86,0,0,0,117,268.14a.3.3,0,0,1-.4-.12.31.31,0,0,1,.12-.41,89.3,89.3,0,0,1,14.46-5.85c-2.59-2.24-5-4.15-7.28-5.77a53.21,53.21,0,0,0-13.22,4.37.3.3,0,0,1-.28-.53,53.33,53.33,0,0,1,12.84-4.32c-.94-.65-1.83-1.26-2.7-1.82a46.28,46.28,0,0,0-11.37,2.43.29.29,0,0,1-.37-.19.29.29,0,0,1,.18-.37,48.44,48.44,0,0,1,10.73-2.4c-7-4.39-11.35-5.61-11.38-5.62A.45.45,0,0,1,108,247a.46.46,0,0,1,.56-.31,35.85,35.85,0,0,1,5.27,2.17,27.19,27.19,0,0,0-2.47-3.09.3.3,0,0,1-.08-.41.29.29,0,0,1,.41-.08,37.51,37.51,0,0,1,3.3,4.17c1.35.7,2.88,1.55,4.57,2.6l-2.71-6a.29.29,0,0,1,.14-.39.3.3,0,0,1,.4.15l3.08,6.77c1.16.74,2.38,1.56,3.67,2.48l-2.9-7.05a.3.3,0,0,1,.55-.22l3.26,7.93c1.93,1.41,4,3,6.12,4.86l-2.46-7.28a.3.3,0,0,1,.56-.19l2.79,8.25c1,.86,2,1.76,3,2.72L133,257.56a.3.3,0,1,1,.57-.18l2.4,7.58c1.88,1.81,3.82,3.79,5.8,6l-1.5-6.38a.28.28,0,0,1,.22-.35.3.3,0,0,1,.36.22l1.75,7.42c.79.87,1.58,1.78,2.37,2.71l-.79-4.86a.3.3,0,1,1,.59-.09l.95,5.83c1.48,1.75,3,3.62,4.49,5.59l-.7-5.41a.29.29,0,0,1,.25-.33.29.29,0,0,1,.33.25l.84,6.43q2,2.63,4,5.51l-.41-4.79a.3.3,0,0,1,.27-.33.31.31,0,0,1,.32.27l.5,5.84q1.74,2.55,3.51,5.3l.13-4.31a.3.3,0,1,1,.6,0l-.17,5.18q1.27,2,2.54,4.14l.61-3.66a.29.29,0,0,1,.34-.24.3.3,0,0,1,.25.34l-.73,4.35q1.17,2,2.34,4l.52-2.36a.31.31,0,0,1,.36-.23.3.3,0,0,1,.22.36l-.67,3c.58,1,1.16,2.1,1.74,3.17l1.06-1.91a.29.29,0,0,1,.4-.11.29.29,0,0,1,.12.4l-1.25,2.25c.47.87.94,1.77,1.41,2.67l-.83.34C167.61,310.31,167.16,309.46,166.71,308.62Z" transform="translate(-90.44 -110.87)"/><path class="cls-2" d="M262.86,157a39.67,39.67,0,0,1,5.32-15.66c6.49-11.44,9.37-23.91,3.2-27.56-5.95-3.52-15.15,12.71-14.46,42.27l5.92.94Z" transform="translate(-90.44 -110.87)"/><path class="cls-4" d="M270.07,117.2a.45.45,0,0,0-.09-.63.44.44,0,0,0-.62.09,31.82,31.82,0,0,0-2.15,3.32l.16-2.55a.3.3,0,0,0-.28-.32.29.29,0,0,0-.31.28l-.25,3.8c-.55,1-1.15,2.23-1.76,3.59l-.33-3.07a.29.29,0,0,0-.32-.27.3.3,0,0,0-.27.33l.43,4.11c-.61,1.44-1.22,3-1.79,4.76l-.38-2.65a.3.3,0,0,0-.59.08l.55,3.88c-.56,1.84-1.09,3.84-1.53,6l-.64-2.49a.29.29,0,0,0-.36-.21.3.3,0,0,0-.22.36l1,3.7c-.38,2-.68,4.2-.88,6.48l-.69-1.36a.31.31,0,0,0-.4-.13.3.3,0,0,0-.13.41l1.14,2.21c-.13,1.75-.19,3.56-.17,5.44L258.4,151a.3.3,0,0,0-.41-.12.31.31,0,0,0-.11.41l1.29,2.28c0,.93.06,1.87.12,2.83l.91.14c-.07-1-.11-1.9-.14-2.83a11.08,11.08,0,0,1,2.45-2.21.29.29,0,0,0,.15-.39.3.3,0,0,0-.4-.15,9.05,9.05,0,0,0-2.21,1.89q0-1.1,0-2.16a12.77,12.77,0,0,1,3.15-2.22.3.3,0,0,0,.16-.39.31.31,0,0,0-.39-.16,11.93,11.93,0,0,0-2.91,2c0-1.45.13-2.86.25-4.23a28.92,28.92,0,0,1,5.45-2.56.29.29,0,0,0,.23-.35.31.31,0,0,0-.36-.23,26.75,26.75,0,0,0-5.25,2.42c.14-1.45.33-2.85.55-4.2a26.56,26.56,0,0,1,6.54-3,.3.3,0,0,0,.22-.36.3.3,0,0,0-.36-.22,26.59,26.59,0,0,0-6.27,2.77c.11-.67.24-1.32.37-1.95a29,29,0,0,1,7.78-3.76.28.28,0,0,0,.2-.36.3.3,0,0,0-.37-.21,29.56,29.56,0,0,0-7.43,3.49,62.31,62.31,0,0,1,1.74-6.33,60.6,60.6,0,0,1,8.76-2.67.29.29,0,1,0-.09-.58,55.6,55.6,0,0,0-8.42,2.53c.49-1.43,1-2.75,1.52-3.95,1.24-.33,5.84-1.56,7-1.79a.3.3,0,0,0-.12-.58c-1,.21-4.89,1.23-6.55,1.67.69-1.56,1.37-2.92,2-4,1.19-.24,4.07-.81,4.79-.9a.3.3,0,0,0,.26-.34.29.29,0,0,0-.33-.25c-.65.08-3,.54-4.34.81A30.78,30.78,0,0,1,270.07,117.2Z" transform="translate(-90.44 -110.87)"/><path class="cls-3" d="M260.23,191.57c2.3-6.09,7.69-16.61,19.94-28.78,19.38-19.25,32.15-41.57,21.94-50.39-10-8.65-38.34,19.84-53.49,77.31A62.13,62.13,0,0,0,260.23,191.57Z" transform="translate(-90.44 -110.87)"/><path class="cls-4" d="M254.64,188a14.3,14.3,0,0,1,4.64-.5.29.29,0,0,0,.31-.28.3.3,0,0,0-.28-.31,15.72,15.72,0,0,0-4.47.42c.29-1,.58-1.9.87-2.83,1-.27,4.22-1.14,5.45-1.37a.3.3,0,1,0-.11-.59c-1.13.22-3.87.94-5.13,1.28.55-1.74,1.11-3.43,1.68-5.09a70.46,70.46,0,0,1,7.45-1.26.29.29,0,0,0,.27-.32.31.31,0,0,0-.33-.27,68.73,68.73,0,0,0-7.17,1.19q.87-2.51,1.76-4.87a97.35,97.35,0,0,1,10.65-1.8.3.3,0,0,0,.26-.33.29.29,0,0,0-.33-.26,98.34,98.34,0,0,0-10.33,1.72q1.19-3.12,2.4-6c1.38-.4,7.12-2,11.8-1.66a.3.3,0,0,0,.32-.28.29.29,0,0,0-.28-.31c-4.36-.3-9.6,1-11.55,1.55,1-2.37,2-4.62,3.05-6.78,1.92-.36,9.71-1.67,13.92,0a.3.3,0,0,0,.38-.17.3.3,0,0,0-.17-.39c-4.08-1.6-11.31-.53-13.81-.08,1.09-2.28,2.2-4.44,3.3-6.5a61.94,61.94,0,0,1,13.75,1.34.3.3,0,0,0,.36-.22.31.31,0,0,0-.23-.36,62.39,62.39,0,0,0-13.55-1.36c.65-1.21,1.32-2.38,2-3.51a66.9,66.9,0,0,1,15.75,1.61.3.3,0,1,0,.12-.58,69.2,69.2,0,0,0-15.51-1.63q2.36-4,4.69-7.4c1.81.14,11,.92,16.2,2.66a.29.29,0,0,0,.37-.19.29.29,0,0,0-.18-.37c-5-1.67-13.56-2.46-16-2.66.9-1.31,1.8-2.55,2.68-3.72a87.21,87.21,0,0,1,15.59,2.82.3.3,0,0,0,.37-.2.29.29,0,0,0-.2-.37A86.94,86.94,0,0,0,280,135c2.07-2.72,4.07-5.09,5.95-7.13a53.37,53.37,0,0,1,13.84,1.61.31.31,0,0,0,.37-.2.3.3,0,0,0-.21-.37,53.41,53.41,0,0,0-13.44-1.64c.78-.83,1.54-1.61,2.27-2.33a46.49,46.49,0,0,1,11.62.08.29.29,0,0,0,.34-.25.3.3,0,0,0-.26-.34,48.69,48.69,0,0,0-11-.17c5.94-5.71,10-7.79,10-7.81a.44.44,0,0,0,.19-.6.46.46,0,0,0-.61-.19,35.89,35.89,0,0,0-4.72,3.19,25.52,25.52,0,0,1,1.79-3.52.31.31,0,0,0,0-.42.29.29,0,0,0-.42,0,36.54,36.54,0,0,0-2.39,4.75c-1.18,1-2.5,2.1-3.95,3.46l1.45-6.37a.3.3,0,0,0-.22-.36.3.3,0,0,0-.36.23l-1.65,7.25c-1,1-2,2-3.09,3.17l1.42-7.48a.3.3,0,0,0-.24-.35.3.3,0,0,0-.35.23l-1.59,8.43c-1.6,1.77-3.28,3.76-5,6l.94-7.63a.29.29,0,0,0-.26-.33.3.3,0,0,0-.33.26l-1.07,8.64c-.78,1-1.58,2.13-2.38,3.27l.71-6.84a.29.29,0,0,0-.27-.32.3.3,0,0,0-.33.26l-.82,7.91c-1.47,2.15-3,4.49-4.48,7l.19-6.56a.29.29,0,0,0-.29-.3.3.3,0,0,0-.31.29l-.21,7.62c-.6,1-1.19,2.06-1.78,3.13l-.2-4.91a.3.3,0,0,0-.6,0l.24,5.9q-1.64,3-3.26,6.39l-.4-5.44a.3.3,0,0,0-.6,0l.48,6.47c-.94,2-1.88,4.05-2.8,6.2l-.57-4.78a.29.29,0,0,0-.33-.26.3.3,0,0,0-.26.33l.69,5.82c-.8,1.89-1.59,3.86-2.36,5.89l-1-4.19a.29.29,0,0,0-.36-.22.3.3,0,0,0-.22.36l1.21,5q-.84,2.24-1.65,4.56L255.77,174a.3.3,0,0,0-.39-.17.3.3,0,0,0-.17.38l1.59,4.12c-.5,1.44-1,2.91-1.47,4.42l-1-2.2a.3.3,0,0,0-.55.24l1.27,2.81c-.36,1.13-.71,2.29-1.06,3.45l-1.43-1.65a.29.29,0,0,0-.42,0,.31.31,0,0,0,0,.42l1.68,1.94q-.44,1.44-.84,2.91l.88.16C254.1,189.88,254.37,189,254.64,188Z" transform="translate(-90.44 -110.87)"/><path class="cls-2" d="M225.81,353.12a159.17,159.17,0,0,1,.1-25.71c2.78-31.24,15.54-53.52,33.62-68.44s41.41-22.44,65.43-24.2a158.67,158.67,0,0,1,25.52.23.85.85,0,0,1,.77.92V236c-.25,2.41-15.06,143.36-124.79,117.93A.85.85,0,0,1,225.81,353.12Z" transform="translate(-90.44 -110.87)"/><path class="cls-4" d="M345.89,239.26a.79.79,0,0,1,.56,1.47A166.54,166.54,0,0,0,325,251.18c4.39.78,14.4,2.64,18.75,4.06a.78.78,0,1,1-.48,1.49c-5.11-1.66-18.43-4-20.41-4.33-5.54,3.21-11.78,7.13-18.41,11.84L339,273.33a.79.79,0,1,1-.4,1.52l-35.83-9.42a234.81,234.81,0,0,0-19.18,15.42c7.11,2.16,41.2,12.61,46.78,15.48a.77.77,0,0,1,.34,1.05.78.78,0,0,1-1,.35c-5.76-3-43.2-14.37-47.44-15.66-5.22,4.74-10.48,9.95-15.65,15.64l53.25,17a.77.77,0,0,1,.51,1,.79.79,0,0,1-1,.51L265.41,299c-4,4.5-8,9.29-11.81,14.39,8.68,2.93,53.12,16.76,53.25,16.8a.78.78,0,1,1-.46,1.5c-.14,0-46.34-14.41-53.78-17q-4.94,6.66-9.55,14c10.5,5.19,45.8,14.35,45.9,14.38a.78.78,0,1,1-.39,1.52c-.11,0-35.78-9.28-46.34-14.55-1.95,3.18-3.86,6.46-5.69,9.85,4,1.59,22.09,8.52,33.75,9.71a.79.79,0,1,1-.16,1.57c-12-1.23-30.64-8.42-34.34-9.89q-2.13,4-4.14,8.2a.79.79,0,0,1-1.05.37.78.78,0,0,1-.37-1.05q2.09-4.4,4.34-8.57c-2.33-6.45-3.79-19.7-3.79-19.74a.78.78,0,1,1,1.56-.17s1.26,11.4,3.26,18c1.77-3.24,3.61-6.39,5.49-9.44a153.09,153.09,0,0,1-5.35-29.74.79.79,0,0,1,1.57-.11,151.49,151.49,0,0,0,4.9,28q4.47-7.07,9.24-13.48c-.95-2.83-6.64-20.1-7.11-32.32a.79.79,0,0,1,1.58-.06c.42,11,5.15,26.17,6.68,30.84,3.79-5,7.69-9.72,11.65-14.15-8.18-17.32-8.33-30.93-8.33-31a.79.79,0,1,1,1.57,0s.15,13,7.9,29.74c5.18-5.71,10.45-10.93,15.7-15.69-3.41-7.67-6.69-27.6-6.7-27.66a.79.79,0,1,1,1.55-.25s3.13,19,6.38,26.8a238.74,238.74,0,0,1,19.42-15.64,89.34,89.34,0,0,1-2.21-20.92.79.79,0,1,1,1.57,0,88.39,88.39,0,0,0,2,19.9c6.75-4.81,13.1-8.82,18.75-12.09a55.92,55.92,0,0,1-.21-11.44.78.78,0,1,1,1.56.14,57,57,0,0,0,.12,10.44A170.05,170.05,0,0,1,345.89,239.26Z" transform="translate(-90.44 -110.87)"/><path class="cls-5" d="M96.35,360.78H335.42a5.6,5.6,0,0,1,5.58,5.58h0a5.6,5.6,0,0,1-5.58,5.58h-20.7a6.55,6.55,0,0,0-6.53,6.52h0a6.56,6.56,0,0,0,5.94,6.5H325.4c1.93,0,3.51,2.06,3.51,4.57h0c0,2.52-1.58,4.58-3.51,4.58H183a2.43,2.43,0,0,1-.38,0q-.32,0-.63,0H120a7.51,7.51,0,0,1-7.49-7.49h0a7.51,7.51,0,0,1,7.49-7.49h8.44a3.26,3.26,0,0,0,3.25-3.26h0a3.26,3.26,0,0,0-3.25-3.25H96.35a5.94,5.94,0,0,1-5.91-5.92h0a5.93,5.93,0,0,1,5.91-5.92Zm252.2,11.16h0a5.53,5.53,0,0,0,5.52-5.52v-.12a5.54,5.54,0,0,0-5.52-5.52h0A5.54,5.54,0,0,0,343,366.3v.12a5.54,5.54,0,0,0,5.52,5.52ZM101,379.13a7.24,7.24,0,0,0-7.23,7.22v.53a7.25,7.25,0,0,0,7.23,7.23h0a7.25,7.25,0,0,0,7.22-7.23v-.53a7.24,7.24,0,0,0-7.22-7.22Z" transform="translate(-90.44 -110.87)"/><rect class="cls-6" x="43.13" y="2.24" width="127.86" height="257.1" rx="15.98"/><rect class="cls-6" x="45.67" y="4.78" width="122.78" height="252.02" rx="13.44"/><path class="cls-7" d="M231.28,123.53v1.15a5.13,5.13,0,0,1-5.11,5.11H168.83a5.12,5.12,0,0,1-5.1-5.11v-1.15a2.26,2.26,0,0,0-2.06-1.36H149.55a7,7,0,0,0-6.92,6.92V354.23a7,7,0,0,0,6.92,6.92h95.9a7,7,0,0,0,6.92-6.92V129.09a7,7,0,0,0-6.92-6.92H233.33A2.23,2.23,0,0,0,231.28,123.53Z" transform="translate(-90.44 -110.87)"/><path class="cls-8" d="M190.28,124.28a1,1,0,1,1,0-2H209a1,1,0,0,1,0,2Zm-3.37-2a1,1,0,1,1,0,2h-.86a1,1,0,0,1,0-2Z" transform="translate(-90.44 -110.87)"/><path class="cls-9" d="M285.93,357.69c0,.73.14,4-.55,5.35-.17.34.14.72.28,1,.43,1,1.79,2.26,6.23,2.92a47.1,47.1,0,0,0,12-.13c2.58-.34,1.06-1.59-.14-2.12s-10.29-3.49-11.61-4.79-.36-3.53-.56-3.89S286.56,355.7,285.93,357.69Z" transform="translate(-90.44 -110.87)"/><path class="cls-10" d="M285.38,363a1.51,1.51,0,0,0-1.08,1.12,11.73,11.73,0,0,0,.56,5.27c.56,1.13,3.58.7,8.82.7h7.82c2.85,0,7.06-.83,7.52-1.92s-1.77-3.39-5.64-3.64c0,0,.77.52-.22,1.25s-4.47,1.47-9.72.86S285.57,363.84,285.38,363Z" transform="translate(-90.44 -110.87)"/><path class="cls-11" d="M291.11,251.75l1.34,1.94s3.17,34.72,3,45.6-2.25,12.56-2.35,23.54-1.21,32.07-1.12,34.69-4.78,2.07-6.19.94-2.81-37.85-2.44-43.32a69,69,0,0,0-1.87-18.2c-1.22-5.06-8.72-33.1-8.72-40.41S291.11,251.75,291.11,251.75Z" transform="translate(-90.44 -110.87)"/><path class="cls-9" d="M272.16,303.81a3.74,3.74,0,0,1-1.9.26,18.84,18.84,0,0,0-2.69-.06,3.69,3.69,0,0,0-1,.22c-1,.38-2.35,1.66-3.26,6.06a47.05,47.05,0,0,0-.52,12c.19,2.6,1.53,1.15,2.12,0s3.69-9.09,6-11.15,2.62-1.82,3-2S274.11,304.55,272.16,303.81Z" transform="translate(-90.44 -110.87)"/><path class="cls-12" d="M267.57,304a1.52,1.52,0,0,0-1.07-1.14,11.71,11.71,0,0,0-5.29.27c-1.15.5-.89,3.53-1.18,8.76s-.27,5-.43,7.81.44,7.1,1.51,7.62,3.48-1.58,3.94-5.43c0,0-.56.74-1.24-.29s-1.22-4.54-.32-9.75S266.76,304.15,267.57,304Z" transform="translate(-90.44 -110.87)"/><path class="cls-13" d="M269.91,245.88c-1.49,1.09-7.34,5-7.93,6.26-11.08,24,34.24,30.58,39.56,38.49.9,1.34-29.23,12.48-30.12,13.18s-.15,5.39.93,6.16,37.84-7.5,46.2-12.58c0,0,5.29-4,.24-12.95s-28.46-23.82-30.05-25.69-4.18-4.18-3.16-7.41S269.91,245.88,269.91,245.88Z" transform="translate(-90.44 -110.87)"/><path class="cls-9" d="M308.26,207l1.18-.39a8,8,0,0,1,1.42-2.36c.77-.7,2.12-1.84,2.23-3.45s-5.93-2.47-5.93-2.13-2.53,2.78-2.3,3.8a17.1,17.1,0,0,0,1.06,2.67Z" transform="translate(-90.44 -110.87)"/><path class="cls-14" d="M287.48,206.91s7.55,17.48,9,19.29,8-17.54,9.41-21c0,0,2.73.15,3.61,1,0,0-4.39,23.26-6.43,27.93s-6.53,5.3-10.61,3.57-14.58-20.18-16.78-23.58S279.29,198.87,287.48,206.91Z" transform="translate(-90.44 -110.87)"/><path class="cls-15" d="M263.44,197.47c-7.91-11-2.19-18.66,4-22.32,2.88-1.69,5.37-7.47,5.32-10-.18-8.86,4.37-19,13.59-16.17,16.91-6.9,18.08,8.28,15.54,18.34-.71,2.79.91,5.58,3.39,8.1,6,6.14,2.47,14.07.09,18.4s1.85,9.16-.39,12.56c-2.67,4-14.71,14.61-17,3.51C283.83,190.07,276.13,199.57,263.44,197.47Z" transform="translate(-90.44 -110.87)"/><path class="cls-9" d="M286.05,177.42l.29,2.9a1.91,1.91,0,0,0-1.82,1.16,55.57,55.57,0,0,0-1.64,10.89s-.11.22-.51.07-5.09-5.47-8.6-6.67l7.69-17.44Z" transform="translate(-90.44 -110.87)"/><path class="cls-16" d="M283,191.78s.62,2.12,3.75,6.22,10.56,11.25,10.56,14.94-4.14,11.92-4.69,15.73c-1.38,9.58,2.18,18.14,1.06,27.78-.12,1-.51.79-.87.7a82.05,82.05,0,0,0-16.37-1c-7.57.45-12.94-1.69-14.68-3.12a2.45,2.45,0,0,1-.63-1.92c.27-.91,5.36-11.43,5.28-22.6s-15.07-35.31,7.41-42.72a32.16,32.16,0,0,1,4.85,1.53C279.89,188,283,191.78,283,191.78Z" transform="translate(-90.44 -110.87)"/><path class="cls-17" d="M283.47,199.09s4.13,21.29,5.34,23.65S302,205.2,304.4,201.67c0,0,3,.82,3.77,2,0,0-10.57,24.78-14,29.47s-8.56,4.31-12.67,1.39-11.28-26-12.9-30.32S276.33,188.15,283.47,199.09Z" transform="translate(-90.44 -110.87)"/><path class="cls-18" d="M317.16,181.35s1,.26,1,.94-2.21,16.3-2.49,16.92-.56,1.6-7.1.89c0,0-1.14-.22-1.39-.81s1.32-14.55,1.41-16.17a1.92,1.92,0,0,1,2-2C311.56,181,317.16,181.35,317.16,181.35Z" transform="translate(-90.44 -110.87)"/><path class="cls-9" d="M293.78,153.18s4.42,2.95,4.39,6.87a26.2,26.2,0,0,1-.86,7.42c-.27.5-.58.46-.64.94a23,23,0,0,0-.12,3.8c.1,1.86-1.22,1.34-2,1.83s-.41.85-.69,1.83-.94.84-1.11,1.35,0,.79-.12,1a23.15,23.15,0,0,0-2,2.41c-.59,1-2.28.48-3.75-.07s-5.12-3.88-6.29-7.46.09-8.46.09-8.46a7.49,7.49,0,0,1-.35-3.86c.46-1.69.63-1.35,1.47-1.68s1,2.65,1,2.65S287.77,151.66,293.78,153.18Z" transform="translate(-90.44 -110.87)"/><path class="cls-19" d="M296.53,155.8c-2.29,5.3-10.53,3.29-13.75,6l.85-5.51,1.61-3.83s3.77-2.37,4.23-2.21S296.74,152.25,296.53,155.8Z" transform="translate(-90.44 -110.87)"/><path class="cls-9" d="M307.89,204.46a16.06,16.06,0,0,1,3.18-2.11c2.21-1.2,4.09-2.22,4.39-3a1.57,1.57,0,0,0-.34-1.84c-.42-.25-1.53.07-2-.09s.74-.83,1.51-1a11.44,11.44,0,0,0,2.05-.35.65.65,0,0,0,.21-.78c-.07-.14-.72-.16-1.56-.23a4.48,4.48,0,0,0-2.13.15,5.56,5.56,0,0,1-1.69.34,1.18,1.18,0,0,1,0-1.18,8.61,8.61,0,0,1,1.77-1.71c.38-.27,1.63-.16,2.2-.37s.54-.9-.15-1a11.1,11.1,0,0,0-2.48,0c-1,0-1.43.64-2.71,1.48s-3.63,2.39-4.3,4-.86,3.8-1.44,4.91S305.09,204.09,307.89,204.46Z" transform="translate(-90.44 -110.87)"/><path class="cls-20" d="M273.93,165.35l6.68-.31c5,4.38,3.77,15.85,0,20.91-4.32,5.85-11.44,1-14.17,3.75l-.81-6.8S278.53,172.2,273.93,165.35Z" transform="translate(-90.44 -110.87)"/><g class="cls-21"><path class="cls-22" d="M196.64,176.46a35.29,35.29,0,0,1,34.79,29.4,3,3,0,0,0,2.9,2.47h0a3,3,0,0,0,2.9-3.44,41.18,41.18,0,0,0-81.21,0,2.94,2.94,0,0,0,2.89,3.44h0a3,3,0,0,0,2.9-2.47A35.28,35.28,0,0,1,196.64,176.46Z" transform="translate(-90.44 -110.87)"/><path class="cls-23" d="M231.45,180.2l-11.21,9s-5.54-13.45-19.12-10.7-32,15.35-35.42,23.61-9.54,8.66-9.54,8.66l-5.22-7.47,17.32-29.72,13.28-7.18,26-2.07,18.79,5,9.45,6.49Z" transform="translate(-90.44 -110.87)"/></g><path class="cls-22" d="M221.71,188.13a5.43,5.43,0,1,1,5.43-5.42A5.43,5.43,0,0,1,221.71,188.13Z" transform="translate(-90.44 -110.87)"/><path class="cls-23" d="M221.71,179a3.7,3.7,0,1,1-3.69,3.7,3.7,3.7,0,0,1,3.69-3.7m0-3.46a7.16,7.16,0,1,0,7.16,7.16,7.16,7.16,0,0,0-7.16-7.16Z" transform="translate(-90.44 -110.87)"/><path class="cls-24" d="M173.93,220.3l8.23-18H171.35v-3.9h15.73v2.91l-8.29,19Z" transform="translate(-90.44 -110.87)"/><path class="cls-24" d="M204.61,220.3H189.29v-3.22l5.5-5.57c1.63-1.67,2.7-2.82,3.2-3.47a7.53,7.53,0,0,0,1.08-1.79,4.56,4.56,0,0,0,.33-1.71,2.5,2.5,0,0,0-.73-2,2.83,2.83,0,0,0-1.94-.65,5.74,5.74,0,0,0-2.48.58,13.26,13.26,0,0,0-2.5,1.67l-2.52-3a16.44,16.44,0,0,1,2.68-1.95,9.69,9.69,0,0,1,2.33-.88,11.65,11.65,0,0,1,2.82-.31,8.35,8.35,0,0,1,3.63.75,5.78,5.78,0,0,1,2.44,2.1A5.58,5.58,0,0,1,204,204a7.63,7.63,0,0,1-.53,2.84,11.12,11.12,0,0,1-1.65,2.72,40.93,40.93,0,0,1-3.94,4l-2.82,2.65v.21h9.55Z" transform="translate(-90.44 -110.87)"/><path class="cls-24" d="M221.29,203.28a5.14,5.14,0,0,1-1.24,3.49,6.47,6.47,0,0,1-3.5,2v.09a7,7,0,0,1,4,1.62,4.5,4.5,0,0,1,1.37,3.45,5.86,5.86,0,0,1-2.3,4.93c-1.53,1.18-3.71,1.76-6.55,1.76a15.92,15.92,0,0,1-6.33-1.18v-3.95a14.26,14.26,0,0,0,2.8,1.05,11.81,11.81,0,0,0,3,.41,5.89,5.89,0,0,0,3.39-.78,2.87,2.87,0,0,0,1.1-2.51,2.26,2.26,0,0,0-1.26-2.19,9.34,9.34,0,0,0-4-.64h-1.67v-3.56h1.7a8,8,0,0,0,3.73-.66,2.42,2.42,0,0,0,1.17-2.29q0-2.49-3.12-2.49a7.07,7.07,0,0,0-2.19.36,10.71,10.71,0,0,0-2.49,1.25l-2.14-3.2a11.9,11.9,0,0,1,7.15-2.16,9.24,9.24,0,0,1,5.38,1.38A4.44,4.44,0,0,1,221.29,203.28Z" transform="translate(-90.44 -110.87)"/><g id="item"><circle class="cls-25" cx="69.91" cy="123.64" r="9.09"/><rect class="cls-22" x="84.91" y="118.8" width="66.68" height="10.83" rx="2.31"/><polygon class="cls-22" points="68.93 127.97 64.81 124.18 66.25 122.62 68.72 124.9 73.58 118.95 75.22 120.29 68.93 127.97"/></g><g id="item-2" data-name="item"><circle class="cls-25" cx="69.91" cy="144.89" r="9.09"/><rect class="cls-22" x="84.91" y="140.05" width="66.68" height="10.83" rx="2.31"/><polygon class="cls-22" points="68.93 149.23 64.81 145.43 66.25 143.88 68.72 146.15 73.58 140.2 75.22 141.54 68.93 149.23"/></g><text class="cls-26" transform="translate(77.09 39.84)">Your Score.</text><text class="cls-26" transform="translate(72.9 183.65)">ID Monitor.</text><path id="print" class="cls-23" d="M174.73,338.61a1.13,1.13,0,0,1-1-.69,23.77,23.77,0,0,1-1.88-9.32,1.13,1.13,0,0,1,2.26,0,21.53,21.53,0,0,0,1.7,8.44,1.13,1.13,0,0,1-1,1.57Zm42.38,2a23.71,23.71,0,0,0,2.08-7.17,1.13,1.13,0,0,0-2.24-.28,21.71,21.71,0,0,1-1.89,6.49,1.13,1.13,0,0,0,.54,1.5,1.05,1.05,0,0,0,.48.11A1.14,1.14,0,0,0,217.11,340.62Zm2.59-12a23.91,23.91,0,0,0-14.62-22.06,1.13,1.13,0,1,0-.88,2.08,21.66,21.66,0,0,1,13.24,20,1.13,1.13,0,0,0,2.26,0Zm-23.94-24a24,24,0,0,0-22.63,16.08,1.14,1.14,0,0,0,.7,1.44,1.19,1.19,0,0,0,.37.06,1.13,1.13,0,0,0,1.07-.76,21.71,21.71,0,0,1,20.49-14.55,1.14,1.14,0,0,0,0-2.27m-18,27.3a1.13,1.13,0,0,0,1-1.26,18.18,18.18,0,0,1-.13-2.09,17.2,17.2,0,0,1,8.53-14.81,1.13,1.13,0,0,0-1.14-2,19.45,19.45,0,0,0-9.65,16.76,18.58,18.58,0,0,0,.15,2.36,1.13,1.13,0,0,0,1.12,1Zm30.09-17.05a1.13,1.13,0,0,0-.19-1.59,19.17,19.17,0,0,0-11.91-4.09,20.06,20.06,0,0,0-2.8.2,1.13,1.13,0,0,0,.32,2.24,17.14,17.14,0,0,1,13,3.43,1.11,1.11,0,0,0,.69.24A1.13,1.13,0,0,0,207.86,314.9Zm.77,33.82a30.81,30.81,0,0,0,6.4-14.81,23.06,23.06,0,0,0-3-15.84,1.13,1.13,0,1,0-1.9,1.23c5.45,8.4,2.63,20.83-3.25,28a1.14,1.14,0,0,0,.16,1.59M197,336.6a1.12,1.12,0,0,0,1.08-1.17,30.38,30.38,0,0,0-1-6.77,1.13,1.13,0,0,0-2.19.59,28.91,28.91,0,0,1,.93,6.27,1.12,1.12,0,0,0,1.12,1.08Zm-1.62,15.24a41.4,41.4,0,0,0,2.86-12.31,1.13,1.13,0,1,0-2.25-.16A39.1,39.1,0,0,1,193.25,351M179,343.12a20,20,0,0,0,.58-7.8,1.13,1.13,0,0,0-2.25.27,17.55,17.55,0,0,1-.5,6.91,1.11,1.11,0,0,0,.77,1.39,1.18,1.18,0,0,0,.31.05A1.13,1.13,0,0,0,179,343.12Zm31.72-14.52a15,15,0,0,0-6.5-12.34,1.15,1.15,0,0,0-1.58.29,1.13,1.13,0,0,0,.3,1.57,12.71,12.71,0,0,1,5.52,10.48,1.13,1.13,0,1,0,2.26,0Zm-27.65,0a12.71,12.71,0,0,1,12.7-12.69c.43,0,.87,0,1.3.06a1.13,1.13,0,0,0,.23-2.25c-.51-.05-1-.07-1.53-.07a15,15,0,0,0-15,15,1.13,1.13,0,0,0,2.26,0Zm-.43,18.27a23.86,23.86,0,0,0,1.53-8.46,24.14,24.14,0,0,0-.66-5.63,1.13,1.13,0,1,0-2.2.53,22,22,0,0,1-.78,12.77,1.12,1.12,0,0,0,.66,1.45,1.1,1.1,0,0,0,.4.08A1.12,1.12,0,0,0,182.63,346.87Zm16.77,5.55A26.38,26.38,0,0,0,210.66,334a1.13,1.13,0,0,0-2.24-.3,24.14,24.14,0,0,1-10.3,16.9m-9.5-25.67a8,8,0,0,1,12.55-2.23,1.12,1.12,0,0,0,1.59-.08,1.14,1.14,0,0,0-.07-1.6,10.31,10.31,0,0,0-16.07,2.86,1.14,1.14,0,0,0,.48,1.53,1.23,1.23,0,0,0,.52.12A1.13,1.13,0,0,0,188.62,324.89ZM188,340.65a1.13,1.13,0,0,0,1.13-1.13,38.59,38.59,0,0,0-1.39-10.15,1.13,1.13,0,1,0-2.18.6,36.24,36.24,0,0,1,1.31,9.55,1.13,1.13,0,0,0,1.13,1.13Zm-1.12,9a23,23,0,0,0,1.73-5.68,1.14,1.14,0,0,0-2.24-.37,20.33,20.33,0,0,1-1.55,5.12M207,334.53a21.89,21.89,0,0,0-1.18-8.66,1.13,1.13,0,0,0-1.44-.69,1.14,1.14,0,0,0-.7,1.44,19.48,19.48,0,0,1,1.07,7.77,1.13,1.13,0,0,0,1.05,1.2h.08A1.12,1.12,0,0,0,207,334.53ZM190.9,351.11a31.57,31.57,0,0,0,1.45-4,1.13,1.13,0,1,0-2.17-.63,28,28,0,0,1-1.35,3.69m4.29-6.74a27.32,27.32,0,0,0,.25-5.86c-.06-.94-.17-1.88-.32-2.8a1.13,1.13,0,0,0-2.23.37,25.73,25.73,0,0,1,.06,7.95,1.14,1.14,0,0,0,1,1.29H192A1.13,1.13,0,0,0,193.12,343.45Zm9.94-7.55c0-6.1-1.92-13.22-7.3-13.22a5.93,5.93,0,0,0-5.93,5.92c0,.11,0,.22,0,.33a1.13,1.13,0,0,0,2.26-.12c0-.07,0-.14,0-.21a3.67,3.67,0,0,1,3.67-3.66c4,0,5,7.17,5,11a1.13,1.13,0,0,0,2.26,0Zm-2.26,10.64a25.9,25.9,0,0,0,1.95-6.61,1.13,1.13,0,1,0-2.24-.34,23.81,23.81,0,0,1-1.77,6,1.13,1.13,0,0,0,.57,1.5,1.27,1.27,0,0,0,.46.1A1.12,1.12,0,0,0,200.8,346.54Z" transform="translate(-90.44 -110.87)"/><g id="item-3" data-name="item"><circle class="cls-25" cx="126.79" cy="202.36" r="12.17"/><polygon class="cls-22" points="125.48 208.16 119.97 203.09 121.89 201 125.19 204.04 131.7 196.08 133.9 197.88 125.48 208.16"/></g></svg>