<svg width="57" height="35" viewBox="0 0 57 35" fill="none" xmlns="http://www.w3.org/2000/svg">
<g clip-path="url(#clip0_2_268)">
<path d="M6.72815 12.6512H4.56659V20.2105H6.72204C7.86388 20.2105 8.69431 19.9419 9.42093 19.3374C10.2819 18.6229 10.7948 17.5483 10.7948 16.437C10.7887 14.2021 9.12174 12.6512 6.72815 12.6512ZM8.45006 18.3299C7.986 18.7451 7.3876 18.9282 6.43505 18.9282H6.03816V13.9335H6.43505C7.3876 13.9335 7.96768 14.1044 8.45006 14.5441C8.96298 14.9959 9.26828 15.7042 9.26828 16.4248C9.26828 17.1453 8.96298 17.878 8.45006 18.3299Z" fill="#261F20"/>
<path d="M12.9381 12.6512H11.4665V20.2105H12.9381V12.6512Z" fill="#261F20"/>
<path d="M16.5468 15.5516C15.6614 15.2219 15.4049 15.0082 15.4049 14.599C15.4049 14.1228 15.869 13.7625 16.504 13.7625C16.9437 13.7625 17.31 13.9457 17.6947 14.3731L18.4641 13.3656C17.829 12.81 17.0719 12.5291 16.2415 12.5291C14.9042 12.5291 13.8845 13.4572 13.8845 14.6967C13.8845 15.7409 14.3608 16.2721 15.7469 16.7667C16.3208 16.9682 16.62 17.1087 16.7666 17.1941C17.0597 17.3834 17.2062 17.6582 17.2062 17.9757C17.2062 18.5863 16.7177 19.0443 16.0583 19.0443C15.3561 19.0443 14.7882 18.6901 14.4463 18.0368L13.4937 18.9527C14.1715 19.948 14.9897 20.3937 16.1132 20.3937C17.6459 20.3937 18.7205 19.374 18.7205 17.9147C18.7205 16.7118 18.2259 16.1683 16.5468 15.5577V15.5516Z" fill="#261F20"/>
<path d="M19.1846 16.437C19.1846 18.6596 20.9309 20.3815 23.1718 20.3815C23.8069 20.3815 24.3503 20.2594 25.022 19.9419V18.2077C24.4297 18.8 23.9107 19.0382 23.239 19.0382C21.7552 19.0382 20.6989 17.9635 20.6989 16.4309C20.6989 14.9776 21.7858 13.8358 23.1718 13.8358C23.874 13.8358 24.4053 14.0861 25.022 14.6845V12.9443C24.3747 12.6146 23.8435 12.4802 23.2085 12.4802C20.9737 12.4802 19.1846 14.2388 19.1846 16.437Z" fill="#261F20"/>
<path d="M36.7152 17.7253L34.7001 12.6512H33.0881L36.2938 20.4059H37.0876L40.3544 12.6512H38.7546L36.7152 17.7253Z" fill="#261F20"/>
<path d="M41.02 20.2105H45.2026V18.9282H42.4915V16.8888H45.1049V15.6065H42.4915V13.9335H45.2026V12.6512H41.02V20.2105Z" fill="#261F20"/>
<path d="M51.0401 14.8799C51.0401 13.4633 50.0631 12.6512 48.3656 12.6512H46.1796V20.2105H47.6512V17.1758H47.8466L49.886 20.2105H51.6995L49.3182 17.0231C50.4295 16.7972 51.0401 16.0401 51.0401 14.8799ZM48.0847 16.1317H47.6512V13.8419H48.103C49.019 13.8419 49.5197 14.2266 49.5197 14.9654C49.5197 15.7042 49.019 16.1317 48.0786 16.1317H48.0847Z" fill="#261F20"/>
<path d="M52.2185 13.0481C52.2185 12.9138 52.1269 12.8405 51.9682 12.8405H51.7545V13.506H51.9132V13.2496L52.1025 13.506H52.2979L52.0781 13.2313C52.1697 13.2069 52.2246 13.1397 52.2246 13.0481H52.2185ZM51.9376 13.1397H51.9132V12.9626H51.9437C52.0231 12.9626 52.0659 12.9931 52.0659 13.0481C52.0659 13.103 52.0231 13.1397 51.9437 13.1397H51.9376Z" fill="#261F20"/>
<path d="M51.9926 12.5901C51.669 12.5901 51.4125 12.8466 51.4125 13.1702C51.4125 13.4938 51.6751 13.7503 51.9926 13.7503C52.3101 13.7503 52.5666 13.4877 52.5666 13.1702C52.5666 12.8527 52.3101 12.5901 51.9926 12.5901ZM51.9926 13.6526C51.7362 13.6526 51.5286 13.4389 51.5286 13.1763C51.5286 12.9137 51.7362 12.7 51.9926 12.7C52.2491 12.7 52.4506 12.9198 52.4506 13.1763C52.4506 13.4328 52.243 13.6526 51.9926 13.6526Z" fill="#261F20"/>
<path d="M33.5095 16.4248C33.5095 18.6352 31.7204 20.4304 29.5039 20.4304C27.2874 20.4304 25.4983 18.6413 25.4983 16.4248C25.4983 14.2082 27.2935 12.4192 29.5039 12.4192C31.7143 12.4192 33.5095 14.2082 33.5095 16.4248Z" fill="url(#paint0_linear_2_268)"/>
<path style="mix-blend-mode:multiply" opacity="0.65" d="M33.5095 16.4248C33.5095 18.6352 31.7204 20.4304 29.5039 20.4304C27.2874 20.4304 25.4983 18.6413 25.4983 16.4248C25.4983 14.2082 27.2935 12.4192 29.5039 12.4192C31.7143 12.4192 33.5095 14.2082 33.5095 16.4248Z" fill="url(#paint1_linear_2_268)"/>
<g style="mix-blend-mode:multiply" opacity="0.5">
<mask id="mask0_2_268" style="mask-type:luminance" maskUnits="userSpaceOnUse" x="25" y="12" width="9" height="9">
<path d="M33.5095 16.4248C33.5095 18.6352 31.7143 20.4304 29.5039 20.4304C27.2935 20.4304 25.4983 18.6413 25.4983 16.4248C25.4983 14.2082 27.2935 12.4192 29.5039 12.4192C31.7143 12.4192 33.5095 14.2082 33.5095 16.4248Z" fill="white"/>
</mask>
<g mask="url(#mask0_2_268)">
<path d="M29.5222 12.3581C31.7754 12.3581 33.6072 14.1838 33.6072 16.437C33.6072 18.6901 31.7754 20.5219 29.5222 20.5219C27.2691 20.5219 25.4373 18.6962 25.4373 16.437C25.4373 14.1838 27.263 12.352 29.5222 12.352V12.3581Z" fill="#020000"/>
<path d="M29.5283 12.3642C31.7815 12.3642 33.6133 14.1838 33.6133 16.437C33.6133 18.6901 31.7815 20.528 29.5283 20.528C27.2752 20.528 25.4434 18.7023 25.4434 16.4492C25.4434 14.196 27.2752 12.3642 29.5283 12.3642Z" fill="#030100"/>
<path d="M29.5283 12.3703C31.7815 12.3703 33.6194 14.1899 33.6194 16.4431C33.6194 18.6962 31.7876 20.5341 29.5283 20.5341C27.2691 20.5341 25.4434 18.7084 25.4495 16.4553C25.4495 14.2021 27.2813 12.3703 29.5283 12.3764V12.3703Z" fill="#050100"/>
<path d="M29.5345 12.3764C31.7876 12.3764 33.6255 14.1899 33.6255 16.4431C33.6255 18.6962 31.7876 20.5342 29.5345 20.5342C27.2813 20.5342 25.4495 18.7084 25.4556 16.4553C25.4556 14.2021 27.2874 12.3703 29.5345 12.3764Z" fill="#070200"/>
<path d="M29.5406 12.3886C31.7937 12.3886 33.6316 14.196 33.6316 16.4492C33.6316 18.7023 31.7937 20.5464 29.5406 20.5464C27.2874 20.5464 25.4556 18.7206 25.4617 16.4675C25.4617 14.2143 27.2935 12.3825 29.5406 12.3886Z" fill="#080200"/>
<path d="M29.5467 12.3947C31.7998 12.3947 33.6377 14.2021 33.6377 16.4553C33.6377 18.7084 31.7998 20.5525 29.5467 20.5525C27.2935 20.5525 25.4617 18.7267 25.4678 16.4736C25.4678 14.2205 27.2996 12.3886 29.5467 12.3947Z" fill="#0A0300"/>
<path d="M29.5467 12.4008C31.7998 12.4008 33.6438 14.2021 33.6438 16.4553C33.6438 18.7084 31.7998 20.5586 29.5467 20.5586C27.2935 20.5586 25.4617 18.7329 25.4678 16.4797C25.4678 14.2266 27.2996 12.3947 29.5467 12.4008Z" fill="#0C0300"/>
<path d="M29.5528 12.4069C31.8059 12.4069 33.65 14.2082 33.65 16.4553C33.65 18.7023 31.8059 20.5586 29.5528 20.5586C27.2996 20.5586 25.4678 18.7329 25.4739 16.4797C25.4739 14.2266 27.3057 12.3947 29.5528 12.4008V12.4069Z" fill="#0E0400"/>
<path d="M29.5589 12.413C31.812 12.4191 33.6561 14.2082 33.6561 16.4614C33.6561 18.7145 31.8059 20.5708 29.5589 20.5708C27.3118 20.5708 25.4739 18.7451 25.48 16.4919C25.48 14.2388 27.3118 12.4069 29.5589 12.413Z" fill="#0F0400"/>
<path d="M29.5589 12.4191C31.812 12.4253 33.6561 14.2082 33.6561 16.4614C33.6561 18.7145 31.8059 20.5708 29.5589 20.5708C27.3118 20.5708 25.4739 18.7451 25.48 16.4919C25.4861 14.2388 27.3118 12.4069 29.5589 12.413V12.4191Z" fill="#110500"/>
<path d="M29.5649 12.4253C31.8181 12.4314 33.6682 14.2143 33.6682 16.4614C33.6682 18.7084 31.8181 20.5769 29.5649 20.5769C27.3118 20.5769 25.48 18.7512 25.4922 16.5041C25.4983 14.251 27.324 12.4192 29.5649 12.4314V12.4253Z" fill="#130500"/>
<path d="M29.5711 12.4314C31.8181 12.4375 33.6743 14.2143 33.6743 16.4675C33.6743 18.7206 31.8181 20.583 29.5711 20.583C27.324 20.583 25.4861 18.7573 25.4983 16.5102C25.5044 14.2571 27.3301 12.4253 29.5711 12.4375V12.4314Z" fill="#140600"/>
<path d="M29.5772 12.4375C31.8242 12.4436 33.6805 14.2143 33.6805 16.4675C33.6805 18.7206 31.8242 20.583 29.5772 20.583C27.3301 20.583 25.4922 18.7573 25.5044 16.5102C25.5105 14.2571 27.3423 12.4253 29.5772 12.4375Z" fill="#160600"/>
<path d="M29.5772 12.4436C31.8242 12.4558 33.6866 14.2204 33.6866 16.4675C33.6866 18.7145 31.8303 20.5891 29.5772 20.5891C27.324 20.5891 25.4983 18.7634 25.5044 16.5163C25.5105 14.2632 27.3423 12.4314 29.5772 12.4436Z" fill="#180600"/>
<path d="M29.5833 12.4558C31.8303 12.468 33.6927 14.2265 33.6927 16.4797C33.6927 18.7328 31.8303 20.6013 29.5833 20.6013C27.3362 20.6013 25.5044 18.7756 25.5105 16.5285C25.5227 14.2754 27.3484 12.4436 29.5833 12.4558Z" fill="#190700"/>
<path d="M29.5894 12.4619C31.8364 12.4741 33.6988 14.2327 33.6988 16.4797C33.6988 18.7268 31.8364 20.6074 29.5894 20.6074C27.3423 20.6074 25.5105 18.7817 25.5166 16.5347C25.5288 14.2815 27.3545 12.4497 29.5894 12.4619Z" fill="#1B0700"/>
<path d="M29.5894 12.468C31.8364 12.4802 33.6988 14.2327 33.6988 16.4797C33.6988 18.7268 31.8364 20.6074 29.5894 20.6074C27.3423 20.6074 25.5105 18.7878 25.5166 16.5347C25.5288 14.2815 27.3545 12.4497 29.5894 12.4619V12.468Z" fill="#1D0800"/>
<path d="M29.5955 12.4741C31.8425 12.4863 33.711 14.2327 33.711 16.4858C33.711 18.739 31.8425 20.6196 29.5955 20.6196C27.3484 20.6196 25.5166 18.8 25.5227 16.5469C25.5349 14.2876 27.3607 12.4619 29.5955 12.4741Z" fill="#1F0800"/>
<path d="M29.6016 12.4802C31.8487 12.4924 33.7171 14.2388 33.7171 16.4858C33.7171 18.7329 31.8487 20.6196 29.6016 20.6196C27.3546 20.6196 25.5228 18.8 25.535 16.553C25.5472 14.2937 27.3729 12.468 29.6016 12.4863V12.4802Z" fill="#200900"/>
<path d="M29.6077 12.4863C31.8548 12.4985 33.7232 14.2388 33.7232 16.4858C33.7232 18.7329 31.8548 20.6258 29.6077 20.6258C27.3607 20.6258 25.5289 18.8061 25.5411 16.5591C25.5533 14.2998 27.379 12.4741 29.6077 12.4924V12.4863Z" fill="#220900"/>
<path d="M29.6077 12.4924C31.8548 12.5046 33.7232 14.2449 33.7232 16.4858C33.7232 18.7267 31.8487 20.6257 29.6077 20.6257C27.3668 20.6257 25.5289 18.8061 25.5411 16.5591C25.5533 14.2998 27.379 12.4741 29.6077 12.4924Z" fill="#240A00"/>
<path d="M29.6138 12.4985C31.8609 12.5169 33.7355 14.2449 33.7355 16.4919C33.7355 18.739 31.8609 20.6319 29.6138 20.6319C27.3668 20.6319 25.535 18.8123 25.5472 16.5652C25.5594 14.306 27.3851 12.4802 29.6138 12.4985Z" fill="#250A00"/>
<path d="M29.6199 12.5047C31.867 12.523 33.7416 14.2449 33.7416 16.4919C33.7416 18.739 31.867 20.638 29.6199 20.638C27.3729 20.638 25.5411 18.8184 25.5533 16.5713C25.5655 14.3121 27.3973 12.4863 29.6199 12.5047Z" fill="#270B00"/>
<path d="M29.6199 12.5107C31.867 12.5291 33.7416 14.251 33.7416 16.4919C33.7416 18.7329 31.8609 20.638 29.6199 20.638C27.379 20.638 25.5411 18.8183 25.5533 16.5713C25.5655 14.312 27.3973 12.4924 29.6199 12.5046V12.5107Z" fill="#290B00"/>
<path d="M29.626 12.5229C31.8731 12.5413 33.7538 14.2571 33.7538 16.5041C33.7538 18.7512 31.8731 20.6563 29.626 20.6563C27.379 20.6563 25.5472 18.8366 25.5594 16.5896C25.5777 14.3304 27.4034 12.5107 29.626 12.5229Z" fill="#2A0C00"/>
<path d="M29.6321 12.5291C31.8792 12.5474 33.7599 14.2571 33.7599 16.5041C33.7599 18.7512 31.8792 20.6563 29.6321 20.6563C27.3851 20.6563 25.5533 18.8366 25.5655 16.5896C25.5838 14.3304 27.4095 12.5107 29.6321 12.5229V12.5291Z" fill="#2C0C00"/>
<path d="M29.6383 12.5352C31.8792 12.5535 33.766 14.2632 33.766 16.5041C33.766 18.7451 31.8792 20.6624 29.6383 20.6624C27.3973 20.6624 25.5594 18.8428 25.5716 16.6018C25.5899 14.3426 27.4156 12.523 29.6383 12.5352Z" fill="#2E0D00"/>
<path d="M29.6383 12.5413C31.8792 12.5596 33.766 14.2632 33.766 16.5103C33.766 18.7573 31.8792 20.6685 29.6383 20.6685C27.3973 20.6685 25.5594 18.8489 25.5777 16.6079C25.596 14.3487 27.4218 12.5291 29.6383 12.5474V12.5413Z" fill="#300D00"/>
<path d="M29.6444 12.5474C31.8853 12.5657 33.7782 14.2693 33.7782 16.5102C33.7782 18.7512 31.8914 20.6746 29.6444 20.6746C27.3973 20.6746 25.5655 18.855 25.5838 16.6141C25.6021 14.3548 27.4279 12.5352 29.6444 12.5535V12.5474Z" fill="#310D00"/>
<path d="M29.6505 12.5535C31.8914 12.5718 33.7843 14.2693 33.7843 16.5102C33.7843 18.7512 31.8914 20.6746 29.6505 20.6746C27.4095 20.6746 25.5716 18.855 25.5899 16.614C25.6082 14.3548 27.434 12.5352 29.6505 12.5535Z" fill="#330E00"/>
<path d="M29.6505 12.5596C31.8914 12.584 33.7843 14.2693 33.7843 16.5163C33.7843 18.7634 31.8914 20.6807 29.6505 20.6807C27.4095 20.6807 25.5716 18.8611 25.5899 16.6201C25.6082 14.3609 27.434 12.5413 29.6505 12.5596Z" fill="#350E00"/>
<path d="M29.6566 12.5657C31.8975 12.5901 33.7965 14.2754 33.7965 16.5163C33.7965 18.7573 31.9036 20.6868 29.6566 20.6868C27.4095 20.6868 25.5777 18.8672 25.596 16.6262C25.6143 14.367 27.4401 12.5474 29.6566 12.5657Z" fill="#360F00"/>
<path d="M29.6627 12.5718C31.9036 12.5962 33.8026 14.2754 33.8026 16.5163C33.8026 18.7573 31.9036 20.6868 29.6627 20.6868C27.4217 20.6868 25.5838 18.8672 25.6021 16.6262C25.6204 14.367 27.4462 12.5474 29.6627 12.5657V12.5718Z" fill="#380F00"/>
<path d="M29.6688 12.584C31.9097 12.6085 33.8087 14.2876 33.8087 16.5286C33.8087 18.7695 31.9097 20.7051 29.6688 20.7051C27.4278 20.7051 25.5899 18.8855 25.6082 16.6446C25.6265 14.3853 27.4584 12.5657 29.6688 12.584Z" fill="#3A1000"/>
<path d="M29.6688 12.5901C31.9097 12.6146 33.8087 14.2876 33.8087 16.5286C33.8087 18.7695 31.9097 20.7051 29.6688 20.7051C27.4278 20.7051 25.5899 18.8855 25.6082 16.6446C25.6327 14.3853 27.4584 12.5657 29.6688 12.584V12.5901Z" fill="#3B1000"/>
<path d="M29.6749 12.5962C31.9158 12.6206 33.8209 14.2876 33.8209 16.5285C33.8209 18.7695 31.9158 20.7112 29.6749 20.7112C27.4339 20.7112 25.596 18.8916 25.6204 16.6568C25.6448 14.3975 27.4706 12.5779 29.6749 12.6023V12.5962Z" fill="#3D1100"/>
<path d="M29.681 12.6023C31.9219 12.6267 33.827 14.2937 33.827 16.5346C33.827 18.7756 31.9219 20.7173 29.681 20.7173C27.44 20.7173 25.6021 18.9038 25.6265 16.6629C25.6509 14.4036 27.4767 12.584 29.681 12.6084V12.6023Z" fill="#3F1100"/>
<path d="M29.681 12.6085C31.9219 12.6329 33.827 14.2937 33.827 16.5347C33.827 18.7756 31.9219 20.7174 29.681 20.7174C27.44 20.7174 25.6021 18.9038 25.6265 16.6629C25.6509 14.4036 27.4767 12.584 29.681 12.6085Z" fill="#411200"/>
<path d="M29.6871 12.6146C31.928 12.639 33.8331 14.2937 33.8331 16.5347C33.8331 18.7756 31.9219 20.7235 29.6871 20.7235C27.4522 20.7235 25.6082 18.9099 25.6326 16.669C25.657 14.4098 27.4828 12.5901 29.6871 12.6146Z" fill="#421200"/>
<path d="M29.6932 12.6207C31.9341 12.6512 33.8453 14.2998 33.8453 16.5408C33.8453 18.7817 31.9341 20.7296 29.6932 20.7296C27.4522 20.7296 25.6143 18.916 25.6387 16.6751C25.6632 14.4159 27.4889 12.5962 29.6932 12.6207Z" fill="#441300"/>
<path d="M29.6993 12.6268C31.9403 12.6573 33.8515 14.2998 33.8515 16.5408C33.8515 18.7817 31.9403 20.7357 29.6993 20.7357C27.4584 20.7357 25.6205 18.9222 25.6449 16.6812C25.6693 14.422 27.495 12.6023 29.6993 12.6268Z" fill="#461300"/>
<path d="M29.6993 12.6329C31.9342 12.6634 33.8515 14.3059 33.8515 16.5408C33.8515 18.7756 31.9342 20.7357 29.6993 20.7357C27.4645 20.7357 25.6205 18.9222 25.6449 16.6812C25.6693 14.422 27.495 12.6023 29.6993 12.6268V12.6329Z" fill="#471300"/>
<path d="M29.7054 12.639C31.9403 12.6695 33.8637 14.3059 33.8637 16.5469C33.8637 18.7878 31.9464 20.7479 29.7054 20.7479C27.4645 20.7479 25.6266 18.9344 25.651 16.6934C25.6754 14.4342 27.5011 12.6146 29.7054 12.639Z" fill="#491400"/>
<path d="M29.7115 12.6512C31.9464 12.6817 33.8698 14.312 33.8698 16.553C33.8698 18.7939 31.9525 20.754 29.7115 20.754C27.4706 20.754 25.6327 18.9405 25.6571 16.7056C25.6876 14.4464 27.5072 12.6268 29.7115 12.6573V12.6512Z" fill="#4B1400"/>
<path d="M29.7115 12.6573C31.9463 12.6878 33.8697 14.3181 33.8697 16.553C33.8697 18.7878 31.9463 20.7601 29.7115 20.7601C27.4767 20.7601 25.6326 18.9466 25.6632 16.7117C25.6937 14.4525 27.5194 12.6329 29.7115 12.6634V12.6573Z" fill="#4C1500"/>
<path d="M29.7177 12.6634C31.9525 12.6939 33.8759 14.3182 33.8759 16.553C33.8759 18.7878 31.9525 20.7601 29.7177 20.7601C27.4828 20.7601 25.6388 18.9466 25.6693 16.7117C25.6998 14.4525 27.5256 12.6329 29.7177 12.6634Z" fill="#4E1500"/>
<path d="M29.7237 12.6695C31.9585 12.7 33.8881 14.3243 33.8881 16.5591C33.8881 18.7939 31.9646 20.7662 29.7237 20.7662C27.4828 20.7662 25.6448 18.9527 25.6754 16.7178C25.7059 14.4586 27.5316 12.639 29.7237 12.6695Z" fill="#501600"/>
<path d="M29.7299 12.6756C31.9647 12.7061 33.8942 14.3243 33.8942 16.5591C33.8942 18.7939 31.9647 20.7723 29.7299 20.7723C27.495 20.7723 25.651 18.9588 25.6815 16.724C25.7121 14.4647 27.5378 12.6451 29.7299 12.6756Z" fill="#521600"/>
<path d="M29.7299 12.6817C31.9647 12.7184 33.8942 14.3243 33.8942 16.5591C33.8942 18.7939 31.9647 20.7723 29.7299 20.7723C27.495 20.7723 25.651 18.9588 25.6815 16.724C25.7121 14.4647 27.5378 12.6451 29.7299 12.6756V12.6817Z" fill="#531700"/>
<path d="M29.736 12.6878C31.9708 12.7245 33.9003 14.3304 33.9003 16.5652C33.9003 18.8 31.9708 20.7845 29.736 20.7845C27.5011 20.7845 25.6571 18.971 25.6876 16.7362C25.7182 14.4769 27.5439 12.6573 29.736 12.6878Z" fill="#551700"/>
<path d="M29.7421 12.6939C31.9769 12.7306 33.9125 14.3304 33.9125 16.5652C33.9125 18.8 31.9769 20.7845 29.7421 20.7845C27.5072 20.7845 25.6632 18.971 25.6937 16.7362C25.7243 14.4769 27.55 12.6573 29.7421 12.6878V12.6939Z" fill="#571800"/>
<path d="M29.7421 12.7C31.9769 12.7367 33.9125 14.3304 33.9125 16.5652C33.9125 18.8 31.9769 20.7906 29.7421 20.7906C27.5072 20.7906 25.6632 18.9771 25.6937 16.7423C25.7243 14.483 27.55 12.6634 29.7421 12.6939V12.7Z" fill="#581800"/>
<path d="M29.7482 12.7061C31.983 12.7428 33.9186 14.3365 33.9186 16.5713C33.9186 18.8061 31.983 20.7967 29.7482 20.7967C27.5133 20.7967 25.6693 18.9832 25.7059 16.7545C25.7365 14.4952 27.5622 12.6756 29.7482 12.7123V12.7061Z" fill="#5A1900"/>
<path d="M29.7543 12.7184C31.9891 12.755 33.9308 14.3426 33.9308 16.5774C33.9308 18.8122 31.9891 20.8089 29.7543 20.8089C27.5194 20.8089 25.6754 18.9954 25.712 16.7667C25.7487 14.5074 27.5683 12.6878 29.7543 12.7245V12.7184Z" fill="#5C1900"/>
<path d="M29.7543 12.7245C31.9891 12.7611 33.9308 14.3487 33.9308 16.5774C33.9308 18.8061 31.9891 20.8089 29.7543 20.8089C27.5194 20.8089 25.6754 18.9954 25.712 16.7667C25.7487 14.5074 27.5744 12.6878 29.7543 12.7245Z" fill="#5E1A00"/>
<path d="M29.7604 12.7306C31.9952 12.7672 33.9369 14.3487 33.9369 16.5835C33.9369 18.8183 31.9952 20.815 29.7604 20.815C27.5255 20.815 25.6815 19.0076 25.7181 16.7728C25.7548 14.5135 27.5805 12.6939 29.7604 12.7306Z" fill="#5F1A00"/>
<path d="M29.7665 12.7367C31.9952 12.7733 33.943 14.3487 33.943 16.5835C33.943 18.8184 31.9952 20.8212 29.7665 20.8212C27.5377 20.8212 25.6876 19.0138 25.7242 16.7789C25.7609 14.5197 27.5866 12.7001 29.7665 12.7367Z" fill="#611A00"/>
<path d="M29.7726 12.7428C32.0013 12.7855 33.9552 14.3548 33.9552 16.5835C33.9552 18.8123 32.0074 20.8212 29.7726 20.8212C27.5377 20.8212 25.6937 19.0138 25.7303 16.7789C25.767 14.5197 27.5927 12.7001 29.7726 12.7367V12.7428Z" fill="#631B00"/>
<path d="M29.7726 12.7489C32.0013 12.7916 33.9552 14.3548 33.9552 16.5896C33.9552 18.8245 32.0013 20.8334 29.7726 20.8334C27.5438 20.8334 25.6937 19.026 25.7303 16.7911C25.767 14.5319 27.5927 12.7123 29.7726 12.7489Z" fill="#641B00"/>
<path d="M29.7787 12.755C32.0074 12.7977 33.9613 14.3609 33.9613 16.5896C33.9613 18.8184 32.0074 20.8334 29.7787 20.8334C27.5499 20.8334 25.6998 19.026 25.7364 16.7911C25.7731 14.5319 27.5988 12.7123 29.7787 12.7489V12.755Z" fill="#661C00"/>
<path d="M29.7848 12.7611C32.0135 12.8039 33.9675 14.3609 33.9675 16.5896C33.9675 18.8184 32.0135 20.8395 29.7848 20.8395C27.5561 20.8395 25.7059 19.0321 25.7487 16.8033C25.7853 14.5441 27.611 12.7245 29.7848 12.7672V12.7611Z" fill="#681C00"/>
<path d="M29.7848 12.7672C32.0135 12.81 33.9736 14.3609 33.9736 16.5957C33.9736 18.8306 32.0135 20.8456 29.7848 20.8456C27.5561 20.8456 25.7059 19.0382 25.7487 16.8094C25.7853 14.5502 27.611 12.7306 29.7848 12.7733V12.7672Z" fill="#691D00"/>
<path d="M29.7909 12.7794C32.0196 12.8222 33.9797 14.3731 33.9797 16.6018C33.9797 18.8306 32.0196 20.8578 29.7909 20.8578C27.5622 20.8578 25.712 19.0504 25.7548 16.8217C25.7914 14.5624 27.6171 12.7428 29.7909 12.7855V12.7794Z" fill="#6B1D00"/>
<path d="M29.797 12.7855C32.0257 12.8283 33.9858 14.3731 33.9858 16.6018C33.9858 18.8306 32.0257 20.8578 29.797 20.8578C27.5683 20.8578 25.7181 19.0504 25.7609 16.8217C25.8036 14.5624 27.6232 12.7428 29.797 12.7855Z" fill="#6D1E00"/>
<path d="M29.8031 12.7916C32.0318 12.8344 33.998 14.3731 33.998 16.6079C33.998 18.8428 32.0318 20.8639 29.8031 20.8639C27.5744 20.8639 25.7242 19.0565 25.767 16.8278C25.8097 14.5685 27.6293 12.7489 29.8031 12.7916Z" fill="#6F1E00"/>
<path d="M29.8031 12.7977C32.0318 12.8466 33.998 14.3792 33.998 16.6079C33.998 18.8367 32.0318 20.87 29.8031 20.87C27.5744 20.87 25.7242 19.0626 25.767 16.8339C25.8097 14.5746 27.6354 12.755 29.8031 12.7977Z" fill="#701F00"/>
<path d="M29.8092 12.8038C32.038 12.8527 34.0041 14.3792 34.0041 16.6079C34.0041 18.8367 32.038 20.87 29.8092 20.87C27.5805 20.87 25.7365 19.0626 25.7731 16.8339C25.8159 14.5746 27.6416 12.755 29.8092 12.7977V12.8038Z" fill="#721F00"/>
<path d="M29.8153 12.8099C32.0441 12.8588 34.0102 14.3853 34.0102 16.614C34.0102 18.8428 32.038 20.8822 29.8153 20.8822C27.5927 20.8822 25.7426 19.0748 25.7792 16.8461C25.822 14.5868 27.6477 12.7672 29.8153 12.8099Z" fill="#742000"/>
<path d="M29.8153 12.8161C32.0441 12.8649 34.0163 14.3853 34.0163 16.614C34.0163 18.8428 32.0441 20.8822 29.8153 20.8822C27.5866 20.8822 25.7426 19.0748 25.7792 16.8461C25.822 14.5868 27.6477 12.7672 29.8153 12.8161Z" fill="#752000"/>
<path d="M29.8214 12.8222C32.0501 12.871 34.0224 14.3853 34.0224 16.6141C34.0224 18.8428 32.0501 20.8883 29.8214 20.8883C27.5927 20.8883 25.7486 19.0809 25.7914 16.8583C25.8341 14.599 27.6598 12.7794 29.8214 12.8283V12.8222Z" fill="#772000"/>
<path d="M29.8276 12.8283C32.0563 12.8771 34.0286 14.3914 34.0286 16.614C34.0286 18.8367 32.0502 20.8883 29.8276 20.8883C27.6049 20.8883 25.7548 19.0809 25.7975 16.8583C25.8403 14.599 27.666 12.7794 29.8276 12.8283Z" fill="#792100"/>
<path d="M29.8337 12.8344C32.0563 12.8832 34.0408 14.3914 34.0408 16.6201C34.0408 18.8489 32.0624 20.8944 29.8337 20.8944C27.6049 20.8944 25.7609 19.087 25.8036 16.8644C25.8464 14.6051 27.6721 12.7855 29.8337 12.8344Z" fill="#7A2100"/>
<path d="M29.8337 12.8466C32.0563 12.8954 34.0408 14.4036 34.0408 16.6262C34.0408 18.8489 32.0624 20.9066 29.8337 20.9066C27.6049 20.9066 25.7609 19.0992 25.8036 16.8766C25.8525 14.6173 27.6721 12.7977 29.8337 12.8466Z" fill="#7C2200"/>
<path d="M29.8398 12.8527C32.0624 12.9015 34.0469 14.4036 34.0469 16.6262C34.0469 18.8489 32.0624 20.9066 29.8398 20.9066C27.6171 20.9066 25.767 19.0992 25.8097 16.8766C25.8586 14.6173 27.6782 12.7977 29.8398 12.8466V12.8527Z" fill="#7E2200"/>
<path d="M29.8459 12.8588C32.0685 12.9138 34.053 14.4037 34.053 16.6324C34.053 18.8611 32.0685 20.9189 29.8459 20.9189C27.6233 20.9189 25.7731 19.1176 25.8159 16.8888C25.8647 14.6296 27.6843 12.81 29.8459 12.8588Z" fill="#802300"/>
<path d="M29.8459 12.8649C32.0685 12.9199 34.0591 14.4098 34.0591 16.6324C34.0591 18.855 32.0746 20.9189 29.8459 20.9189C27.6172 20.9189 25.7731 19.1176 25.8159 16.8888C25.8647 14.6296 27.6843 12.81 29.8459 12.8588V12.8649Z" fill="#812300"/>
<path d="M29.852 12.871C32.0746 12.926 34.0652 14.4098 34.0652 16.6324C34.0652 18.855 32.0746 20.925 29.852 20.925C27.6294 20.925 25.7792 19.1237 25.822 16.8949C25.8708 14.6357 27.6965 12.8161 29.852 12.8649V12.871Z" fill="#832400"/>
<path d="M29.858 12.8771C32.0807 12.9321 34.0713 14.4158 34.0713 16.6385C34.0713 18.8611 32.0807 20.931 29.858 20.931C27.6354 20.931 25.7853 19.1297 25.8341 16.9071C25.883 14.6479 27.7087 12.8283 29.858 12.8832V12.8771Z" fill="#852400"/>
<path d="M29.8642 12.8832C32.0868 12.9382 34.0774 14.4158 34.0774 16.6385C34.0774 18.8611 32.0868 20.9371 29.8642 20.9371C27.6415 20.9371 25.7914 19.1358 25.8402 16.9132C25.8891 14.654 27.7148 12.8344 29.8642 12.8893V12.8832Z" fill="#862500"/>
<path d="M29.8642 12.8893C32.0868 12.9443 34.0835 14.4159 34.0835 16.6385C34.0835 18.8611 32.0868 20.9372 29.8642 20.9372C27.6415 20.9372 25.7914 19.1359 25.8402 16.9133C25.8891 14.654 27.7148 12.8344 29.8642 12.8893Z" fill="#882500"/>
<path d="M29.8703 12.8954C32.0929 12.9504 34.0896 14.422 34.0896 16.6446C34.0896 18.8672 32.0929 20.9433 29.8703 20.9433C27.6476 20.9433 25.7975 19.142 25.8463 16.9194C25.8952 14.6601 27.7209 12.8405 29.8703 12.8954Z" fill="#8A2600"/>
<path d="M29.8764 12.9015C32.099 12.9565 34.0957 14.422 34.0957 16.6446C34.0957 18.8672 32.099 20.9494 29.8764 20.9494C27.6537 20.9494 25.8036 19.1481 25.8524 16.9255C25.9013 14.6662 27.727 12.8466 29.8764 12.9015Z" fill="#8B2600"/>
<path d="M29.8764 12.9138C32.099 12.9687 34.1018 14.4281 34.1018 16.6507C34.1018 18.8733 32.099 20.9555 29.8764 20.9555C27.6537 20.9555 25.8036 19.1542 25.8524 16.9316C25.9074 14.6723 27.727 12.8527 29.8764 12.9076V12.9138Z" fill="#8D2600"/>
<path d="M29.8825 12.9199C32.1051 12.9809 34.1079 14.4342 34.1079 16.6568C34.1079 18.8794 32.1051 20.9677 29.8825 20.9677C27.6598 20.9677 25.8097 19.1664 25.8586 16.9438C25.9135 14.6845 27.7331 12.8649 29.8825 12.9199Z" fill="#8F2700"/>
<path d="M29.8886 12.926C32.1112 12.987 34.114 14.4342 34.114 16.6568C34.114 18.8794 32.1112 20.9677 29.8886 20.9677C27.666 20.9677 25.8158 19.1664 25.8647 16.9438C25.9196 14.6845 27.7392 12.8649 29.8886 12.9199V12.926Z" fill="#912700"/>
<path d="M29.8947 12.9321C32.1112 12.9931 34.1201 14.4403 34.1201 16.6568C34.1201 18.8733 32.1112 20.9738 29.8947 20.9738C27.6782 20.9738 25.822 19.1725 25.8769 16.956C25.9319 14.6967 27.7515 12.8771 29.8947 12.9382V12.9321Z" fill="#922800"/>
<path d="M29.8947 12.9382C32.1112 12.9992 34.1263 14.4403 34.1263 16.6629C34.1263 18.8855 32.1174 20.9799 29.8947 20.9799C27.6721 20.9799 25.822 19.1786 25.8769 16.9621C25.9319 14.7028 27.7576 12.8832 29.8947 12.9443V12.9382Z" fill="#942800"/>
<path d="M29.9008 12.9443C32.1174 13.0053 34.1324 14.4403 34.1324 16.6629C34.1324 18.8855 32.1235 20.986 29.9008 20.986C27.6782 20.986 25.8281 19.1847 25.883 16.9682C25.938 14.7089 27.7637 12.8893 29.9008 12.9504V12.9443Z" fill="#962900"/>
<path d="M29.9069 12.9504C32.1235 13.0114 34.1385 14.4464 34.1385 16.6629C34.1385 18.8794 32.1235 20.986 29.9069 20.986C27.6904 20.986 25.8342 19.1847 25.8891 16.9682C25.9441 14.7089 27.7698 12.8893 29.9069 12.9504Z" fill="#972900"/>
<path d="M29.9069 12.9565C32.1235 13.0175 34.1385 14.4464 34.1385 16.669C34.1385 18.8916 32.1235 20.9921 29.9069 20.9921C27.6904 20.9921 25.8342 19.1908 25.8891 16.9743C25.9441 14.715 27.7698 12.8954 29.9069 12.9565Z" fill="#992A00"/>
<path d="M29.913 12.9626C32.1296 13.0237 34.1507 14.4525 34.1507 16.669C34.1507 18.8855 32.1357 20.9982 29.913 20.9982C27.6904 20.9982 25.8403 19.1969 25.8952 16.9804C25.9502 14.7212 27.7759 12.9016 29.913 12.9626Z" fill="#9B2A00"/>
<path d="M29.9191 12.9748C32.1357 13.0359 34.1568 14.4586 34.1568 16.6751C34.1568 18.8916 32.1357 21.0043 29.9191 21.0043C27.7026 21.0043 25.8464 19.203 25.9013 16.9865C25.9563 14.7273 27.782 12.9077 29.9191 12.9687V12.9748Z" fill="#9C2B00"/>
<path d="M29.9252 12.9809C32.1418 13.0481 34.1629 14.4586 34.1629 16.6812C34.1629 18.9038 32.1418 21.0165 29.9252 21.0165C27.7087 21.0165 25.8525 19.2152 25.9074 16.9987C25.9685 14.7395 27.7881 12.9199 29.9252 12.9809Z" fill="#9E2B00"/>
<path d="M29.9253 12.987C32.1418 13.0542 34.169 14.4647 34.169 16.6812C34.169 18.8977 32.1479 21.0165 29.9253 21.0165C27.7026 21.0165 25.8525 19.2152 25.9074 16.9987C25.9685 14.7395 27.7881 12.9199 29.9253 12.9809V12.987Z" fill="#A02C00"/>
<path d="M29.9313 12.9931C32.1478 13.0603 34.1751 14.4647 34.1751 16.6812C34.1751 18.8977 32.1478 21.0226 29.9313 21.0226C27.7148 21.0226 25.8586 19.2275 25.9196 17.0109C25.9807 14.7517 27.8003 12.9321 29.9313 12.9992V12.9931Z" fill="#A22C00"/>
<path d="M29.9374 12.9992C32.1539 13.0664 34.1812 14.4647 34.1812 16.6812C34.1812 18.8977 32.1539 21.0226 29.9374 21.0226C27.7209 21.0226 25.8647 19.2275 25.9257 17.0109C25.9868 14.7517 27.8064 12.9321 29.9374 12.9992Z" fill="#A32D00"/>
<path d="M29.9374 13.0053C32.1539 13.0725 34.1812 14.4708 34.1812 16.6873C34.1812 18.9038 32.1539 21.0349 29.9374 21.0349C27.7209 21.0349 25.8647 19.2397 25.9257 17.0231C25.9868 14.7639 27.8064 12.9443 29.9374 13.0114V13.0053Z" fill="#A52D00"/>
<path d="M29.9435 13.0114C32.16 13.0786 34.1934 14.4708 34.1934 16.6873C34.1934 18.9038 32.16 21.0349 29.9435 21.0349C27.727 21.0349 25.8708 19.2397 25.9318 17.0231C25.9929 14.7639 27.8186 12.9443 29.9435 13.0114Z" fill="#A72D00"/>
<path d="M29.9496 13.0176C32.1661 13.0847 34.1995 14.4769 34.1995 16.6873C34.1995 18.8977 32.1661 21.0349 29.9496 21.0349C27.7331 21.0349 25.8769 19.2397 25.9379 17.0231C25.999 14.7639 27.8247 12.9443 29.9496 13.0114V13.0176Z" fill="#A82E00"/>
<path d="M29.9557 13.0237C32.1722 13.0908 34.2056 14.4769 34.2056 16.6934C34.2056 18.9099 32.1722 21.0471 29.9557 21.0471C27.7392 21.0471 25.883 19.2519 25.944 17.0354C26.0051 14.7761 27.8308 12.9565 29.9557 13.0237Z" fill="#AA2E00"/>
<path d="M29.9558 13.0298C32.1662 13.0969 34.2056 14.4769 34.2056 16.6934C34.2056 18.9099 32.1662 21.0471 29.9558 21.0471C27.7454 21.0471 25.883 19.2519 25.9441 17.0354C26.0051 14.7761 27.8309 12.9565 29.9558 13.0237V13.0298Z" fill="#AC2F00"/>
<path d="M29.9619 13.042C32.1723 13.1152 34.2178 14.4891 34.2178 16.6995C34.2178 18.9099 32.1784 21.0593 29.9619 21.0593C27.7454 21.0593 25.8891 19.2641 25.9502 17.0476C26.0113 14.7883 27.837 12.9687 29.9619 13.0359V13.042Z" fill="#AD2F00"/>
<path d="M29.968 13.0481C32.1784 13.1214 34.2239 14.4891 34.2239 16.7056C34.2239 18.9222 32.1845 21.0654 29.968 21.0654C27.7515 21.0654 25.8952 19.2702 25.9624 17.0598C26.0296 14.8005 27.8492 12.9809 29.968 13.0542V13.0481Z" fill="#AF3000"/>
<path d="M29.968 13.0542C32.1784 13.1275 34.2239 14.4952 34.2239 16.7056C34.2239 18.916 32.1784 21.0715 29.968 21.0715C27.7576 21.0715 25.8952 19.2763 25.9624 17.0659C26.0296 14.8066 27.8492 12.987 29.968 13.0603V13.0542Z" fill="#B13000"/>
<path d="M29.9741 13.0603C32.1845 13.1336 34.2362 14.4952 34.2362 16.7056C34.2362 18.916 32.1906 21.0715 29.9741 21.0715C27.7576 21.0715 25.9013 19.2763 25.9685 17.0659C26.0357 14.8066 27.8553 12.987 29.9741 13.0603Z" fill="#B33100"/>
<path d="M29.9802 13.0664C32.1906 13.1397 34.2423 14.4952 34.2423 16.7117C34.2423 18.9283 32.1967 21.0776 29.9802 21.0776C27.7637 21.0776 25.9074 19.2824 25.9746 17.072C26.0418 14.8128 27.8614 12.9931 29.9802 13.0664Z" fill="#B43100"/>
<path d="M29.9863 13.0725C32.1967 13.1458 34.2484 14.5013 34.2484 16.7117C34.2484 18.9221 32.1967 21.0837 29.9863 21.0837C27.7759 21.0837 25.9135 19.2885 25.9807 17.0781C26.0479 14.8189 27.8675 12.9992 29.9863 13.0725Z" fill="#B63200"/>
<path d="M29.9863 13.0786C32.1967 13.1519 34.2484 14.5013 34.2484 16.7117C34.2484 18.9221 32.1967 21.0837 29.9863 21.0837C27.7759 21.0837 25.9135 19.2885 25.9807 17.0781C26.0479 14.8189 27.8675 12.9992 29.9863 13.0725V13.0786Z" fill="#B83200"/>
<path d="M29.9924 13.0847C32.2028 13.158 34.2606 14.5013 34.2606 16.7179C34.2606 18.9344 32.2028 21.0959 29.9924 21.0959C27.782 21.0959 25.9196 19.3007 25.9868 17.0903C26.054 14.825 27.8797 13.0115 29.9924 13.0847Z" fill="#B93300"/>
<path d="M34.2667 16.7179C34.2667 18.9283 32.2089 21.0959 29.9985 21.0959C27.7881 21.0959 25.9257 19.3007 25.9929 17.0903C26.0601 14.825 27.8858 13.0115 29.9985 13.0847C32.2089 13.1641 34.2667 14.5013 34.2667 16.7117V16.7179Z" fill="#BB3300"/>
<path opacity="0.99" d="M29.9985 13.0969C32.2089 13.1702 34.2667 14.5135 34.2667 16.7301C34.2667 18.9466 32.215 21.1081 29.9985 21.1081C27.782 21.1081 25.9258 19.3129 25.9929 17.1025C26.0601 14.8433 27.8858 13.0298 29.9985 13.0969Z" fill="#BC3502"/>
<path opacity="0.98" d="M30.0046 13.103C32.215 13.1763 34.2667 14.5258 34.2667 16.7362C34.2667 18.9466 32.215 21.1081 30.0046 21.1081C27.7942 21.1081 25.938 19.3129 25.999 17.1025C26.0662 14.8433 27.8858 13.0298 30.0046 13.0969V13.103Z" fill="#BC3705"/>
<path opacity="0.97" d="M30.0046 13.1091C32.215 13.1824 34.2667 14.538 34.2667 16.7484C34.2667 18.9588 32.215 21.1203 30.0046 21.1203C27.7942 21.1203 25.938 19.3251 25.999 17.1147C26.0662 14.8555 27.8858 13.042 30.0046 13.1091Z" fill="#BD3907"/>
<path opacity="0.96" d="M30.0107 13.1152C32.2211 13.1885 34.2667 14.5441 34.2667 16.7545C34.2667 18.9649 32.2211 21.1203 30.0107 21.1203C27.8003 21.1203 25.9441 19.3251 26.0051 17.1147C26.0723 14.8555 27.8919 13.042 30.0107 13.1091V13.1152Z" fill="#BD3A09"/>
<path opacity="0.95" d="M30.0168 13.1213C32.2272 13.1946 34.2728 14.5563 34.2728 16.7667C34.2728 18.9771 32.2272 21.1264 30.0168 21.1264C27.8064 21.1264 25.9502 19.3312 26.0112 17.1208C26.0784 14.8616 27.898 13.0481 30.0168 13.1152V13.1213Z" fill="#BE3C0C"/>
<path opacity="0.95" d="M30.0168 13.1213C32.2272 13.1946 34.2728 14.5563 34.2728 16.7667C34.2728 18.9771 32.2333 21.1264 30.0168 21.1264C27.8003 21.1264 25.9502 19.3312 26.0112 17.1208C26.0784 14.8616 27.898 13.0481 30.0168 13.1152V13.1213Z" fill="#BF3E0E"/>
<path opacity="0.94" d="M30.0229 13.1275C32.2333 13.2007 34.2728 14.5685 34.2728 16.7789C34.2728 18.9893 32.2333 21.1325 30.0229 21.1325C27.8125 21.1325 25.9563 19.3373 26.0173 17.1269C26.0845 14.8677 27.9041 13.0542 30.0229 13.1213V13.1275Z" fill="#BF4010"/>
<path opacity="0.93" d="M30.0229 13.1336C32.2333 13.2069 34.2728 14.5746 34.2728 16.785C34.2728 18.9954 32.2333 21.1387 30.0229 21.1387C27.8125 21.1387 25.9563 19.3435 26.0173 17.1331C26.0784 14.8738 27.898 13.0603 30.0229 13.1275V13.1336Z" fill="#C04213"/>
<path opacity="0.92" d="M30.029 13.1397C32.2394 13.2069 34.2728 14.5868 34.2728 16.7972C34.2728 19.0076 32.2394 21.1448 30.029 21.1448C27.8186 21.1448 25.9624 19.3496 26.0234 17.1392C26.0845 14.8799 27.9041 13.0664 30.029 13.1336V13.1397Z" fill="#C14415"/>
<path opacity="0.91" d="M30.029 13.1458C32.2394 13.213 34.2728 14.5929 34.2728 16.8094C34.2728 19.026 32.2394 21.157 30.029 21.157C27.8186 21.157 25.9624 19.3618 26.0234 17.1514C26.0845 14.8921 27.9041 13.0847 30.029 13.1458Z" fill="#C14617"/>
<path opacity="0.9" d="M30.0351 13.1519C32.2455 13.2191 34.2789 14.6051 34.2789 16.8156C34.2789 19.026 32.2455 21.157 30.0351 21.157C27.8247 21.157 25.9685 19.3618 26.0295 17.1514C26.0906 14.8921 27.9102 13.0847 30.0351 13.1458V13.1519Z" fill="#C24719"/>
<path opacity="0.89" d="M30.0352 13.1519C32.2456 13.2191 34.2728 14.6113 34.2728 16.8217C34.2728 19.0321 32.2456 21.1631 30.0352 21.1631C27.8248 21.1631 25.9746 19.3679 26.0296 17.1575C26.0906 14.8982 27.9103 13.0908 30.0352 13.1519Z" fill="#C2491C"/>
<path opacity="0.88" d="M30.0413 13.158C32.2517 13.2252 34.2789 14.6174 34.2789 16.8278C34.2789 19.0382 32.2517 21.1631 30.0413 21.1631C27.8309 21.1631 25.9807 19.3679 26.0357 17.1575C26.0967 14.8982 27.9164 13.0908 30.0413 13.1519V13.158Z" fill="#C34B1E"/>
<path opacity="0.87" d="M30.0474 13.1641C32.2578 13.2313 34.2789 14.6296 34.2789 16.84C34.2789 19.0504 32.2578 21.1692 30.0474 21.1692C27.837 21.1692 25.9868 19.374 26.0418 17.1636C26.1028 14.9104 27.9225 13.0969 30.0474 13.158V13.1641Z" fill="#C44D20"/>
<path opacity="0.86" d="M30.0474 13.1702C32.2578 13.2374 34.2789 14.6357 34.2789 16.8461C34.2789 19.0565 32.2578 21.1753 30.0474 21.1753C27.837 21.1753 25.9868 19.3801 26.0418 17.1697C26.1028 14.9165 27.9164 13.103 30.0474 13.1641V13.1702Z" fill="#C44F23"/>
<path opacity="0.85" d="M30.0535 13.1763C32.2639 13.2435 34.285 14.6479 34.285 16.8583C34.285 19.0687 32.2639 21.1814 30.0535 21.1814C27.8431 21.1814 25.9929 19.3862 26.0479 17.1758C26.1089 14.9226 27.9225 13.1091 30.0535 13.1702V13.1763Z" fill="#C55125"/>
<path opacity="0.85" d="M30.0535 13.1824C32.2639 13.2496 34.2789 14.654 34.2789 16.8644C34.2789 19.0748 32.2639 21.1875 30.0535 21.1875C27.8431 21.1875 25.9929 19.3923 26.0479 17.1819C26.1089 14.9288 27.9225 13.1152 30.0535 13.1763V13.1824Z" fill="#C65327"/>
<path opacity="0.84" d="M30.0596 13.1885C32.27 13.2496 34.285 14.6662 34.285 16.8766C34.285 19.087 32.27 21.1936 30.0596 21.1936C27.8492 21.1936 25.999 19.3984 26.054 17.188C26.1089 14.9349 27.9286 13.1213 30.0596 13.1824V13.1885Z" fill="#C6542A"/>
<path opacity="0.83" d="M30.0596 13.1885C32.27 13.2496 34.2789 14.6662 34.2789 16.8827C34.2789 19.0992 32.27 21.1997 30.0596 21.1997C27.8492 21.1997 25.999 19.4045 26.054 17.1941C26.1089 14.941 27.9286 13.1336 30.0596 13.1885Z" fill="#C7562C"/>
<path opacity="0.82" d="M30.0657 13.1946C32.2761 13.2557 34.285 14.6784 34.285 16.8888C34.285 19.0992 32.2761 21.1997 30.0657 21.1997C27.8553 21.1997 26.0051 19.4045 26.0601 17.1941C26.115 14.941 27.9347 13.1336 30.0657 13.1885V13.1946Z" fill="#C7582E"/>
<path opacity="0.81" d="M30.0657 13.2007C32.2761 13.2618 34.285 14.6906 34.285 16.901C34.285 19.1114 32.2761 21.2058 30.0657 21.2058C27.8553 21.2058 26.0051 19.4106 26.0601 17.2002C26.115 14.9471 27.9347 13.1397 30.0657 13.1946V13.2007Z" fill="#C85A31"/>
<path opacity="0.8" d="M30.0718 13.2069C32.2822 13.2679 34.285 14.6967 34.285 16.9071C34.285 19.1175 32.2822 21.2119 30.0718 21.2119C27.8614 21.2119 26.0173 19.4167 26.0662 17.2063C26.1212 14.9532 27.9347 13.1458 30.0718 13.2007V13.2069Z" fill="#C95C33"/>
<path opacity="0.79" d="M30.0779 13.213C32.2883 13.274 34.2911 14.7089 34.2911 16.9194C34.2911 19.1298 32.2883 21.218 30.0779 21.218C27.8675 21.218 26.0235 19.4229 26.0723 17.2124C26.1273 14.9593 27.9408 13.1519 30.0779 13.2068V13.213Z" fill="#C95E35"/>
<path opacity="0.78" d="M30.0779 13.2191C32.2883 13.2801 34.285 14.7151 34.285 16.9255C34.285 19.1359 32.2883 21.2241 30.0779 21.2241C27.8675 21.2241 26.0235 19.429 26.0723 17.2185C26.1273 14.9654 27.9408 13.158 30.0779 13.213V13.2191Z" fill="#CA6038"/>
<path opacity="0.77" d="M30.084 13.2191C32.2944 13.2801 34.2911 14.7212 34.2911 16.9316C34.2911 19.142 32.2944 21.2241 30.084 21.2241C27.8736 21.2241 26.0296 19.429 26.0784 17.2185C26.1334 14.9654 27.9469 13.158 30.084 13.213V13.2191Z" fill="#CA613A"/>
<path opacity="0.76" d="M30.084 13.2252C32.2944 13.2862 34.2911 14.7273 34.2911 16.9438C34.2911 19.1603 32.2944 21.2364 30.084 21.2364C27.8736 21.2364 26.0296 19.4412 26.0784 17.2308C26.1334 14.9776 27.9469 13.1702 30.084 13.2252Z" fill="#CB633C"/>
<path opacity="0.75" d="M30.0901 13.2313C32.3005 13.2862 34.2911 14.7395 34.2911 16.9499C34.2911 19.1603 32.3005 21.2363 30.0901 21.2363C27.8797 21.2363 26.0357 19.4412 26.0845 17.2308C26.1395 14.9837 27.953 13.1702 30.0901 13.2252V13.2313Z" fill="#CC653F"/>
<path opacity="0.75" d="M30.0901 13.2374C32.3005 13.2923 34.2911 14.7517 34.2911 16.9621C34.2911 19.1725 32.3005 21.2486 30.0901 21.2486C27.8797 21.2486 26.0357 19.4534 26.0845 17.243C26.1334 14.9959 27.953 13.1824 30.0901 13.2374Z" fill="#CC6741"/>
<path opacity="0.74" d="M30.0962 13.2435C32.3066 13.2984 34.2972 14.7578 34.2972 16.9682C34.2972 19.1786 32.3127 21.2486 30.0962 21.2486C27.8797 21.2486 26.0418 19.4534 26.0906 17.243C26.1395 14.9959 27.953 13.1885 30.0962 13.2374V13.2435Z" fill="#CD6943"/>
<path opacity="0.73" d="M30.1023 13.2496C32.3127 13.3046 34.2972 14.77 34.2972 16.9804C34.2972 19.1908 32.3127 21.2547 30.1023 21.2547C27.8919 21.2547 26.0479 19.4595 26.0967 17.2491C26.1456 15.002 27.9591 13.1946 30.1023 13.2435V13.2496Z" fill="#CE6B46"/>
<path opacity="0.72" d="M30.1023 13.2496C32.3127 13.3046 34.2972 14.77 34.2972 16.9804C34.2972 19.1908 32.3127 21.2547 30.1023 21.2547C27.8919 21.2547 26.0479 19.4595 26.0967 17.2491C26.1456 15.002 27.9591 13.1946 30.1023 13.2435V13.2496Z" fill="#CE6C48"/>
<path opacity="0.71" d="M30.1084 13.2557C32.3188 13.3107 34.2972 14.7822 34.2972 16.9926C34.2972 19.203 32.3188 21.2608 30.1084 21.2608C27.898 21.2608 26.0601 19.4656 26.1028 17.2552C26.1517 15.0081 27.9652 13.2007 30.1084 13.2496V13.2557Z" fill="#CF6E4A"/>
<path opacity="0.7" d="M30.1084 13.2618C32.3188 13.3168 34.2972 14.7883 34.2972 16.9987C34.2972 19.2091 32.3188 21.2669 30.1084 21.2669C27.898 21.2669 26.0601 19.4717 26.1028 17.2613C26.1517 15.0143 27.9652 13.2068 30.1084 13.2557V13.2618Z" fill="#CF704C"/>
<path opacity="0.69" d="M30.1145 13.2679C32.325 13.3229 34.3033 14.8005 34.3033 17.0109C34.3033 19.2213 32.3311 21.273 30.1145 21.273C27.898 21.273 26.0662 19.4778 26.1089 17.2674C26.1578 15.0204 27.9713 13.213 30.1145 13.2618V13.2679Z" fill="#D0724F"/>
<path opacity="0.68" d="M30.1145 13.274C32.325 13.329 34.2972 14.8066 34.2972 17.0231C34.2972 19.2397 32.325 21.2852 30.1145 21.2852C27.9041 21.2852 26.0662 19.49 26.1089 17.2796C26.1578 15.0326 27.9713 13.2252 30.1145 13.274Z" fill="#D17451"/>
<path opacity="0.67" d="M30.1206 13.2801C32.3311 13.329 34.3033 14.8188 34.3033 17.0293C34.3033 19.2397 32.3311 21.2852 30.1206 21.2852C27.9102 21.2852 26.0723 19.49 26.115 17.2796C26.1639 15.0326 27.9713 13.2252 30.1206 13.274V13.2801Z" fill="#D17653"/>
<path opacity="0.66" d="M30.1206 13.2801C32.3311 13.329 34.2972 14.825 34.2972 17.0354C34.2972 19.2458 32.3311 21.2913 30.1206 21.2913C27.9102 21.2913 26.0723 19.4961 26.115 17.2857C26.1639 15.0387 27.9713 13.2313 30.1206 13.2801Z" fill="#D27856"/>
<path opacity="0.65" d="M30.1268 13.2862C32.3372 13.3351 34.3033 14.8311 34.3033 17.0415C34.3033 19.2519 32.3372 21.2913 30.1268 21.2913C27.9163 21.2913 26.0784 19.4961 26.1212 17.2857C26.1639 15.0387 27.9774 13.2374 30.1268 13.2801V13.2862Z" fill="#D27958"/>
<path opacity="0.65" d="M30.1329 13.2923C32.3433 13.3412 34.3094 14.8433 34.3094 17.0537C34.3094 19.2641 32.3494 21.2974 30.1329 21.2974C27.9163 21.2974 26.0845 19.5022 26.1273 17.2918C26.17 15.0448 27.9835 13.2435 30.1329 13.2862V13.2923Z" fill="#D37B5A"/>
<path opacity="0.64" d="M30.1329 13.2984C32.3433 13.3473 34.3033 14.8494 34.3033 17.0598C34.3033 19.2702 32.3433 21.3035 30.1329 21.3035C27.9224 21.3035 26.0845 19.5083 26.1273 17.2979C26.17 15.057 27.9835 13.2496 30.1329 13.2923V13.2984Z" fill="#D47D5D"/>
<path opacity="0.63" d="M30.139 13.3045C32.3494 13.3534 34.3094 14.8616 34.3094 17.072C34.3094 19.2824 32.3494 21.3096 30.139 21.3096C27.9286 21.3096 26.0906 19.5144 26.1334 17.304C26.1761 15.0631 27.9896 13.2557 30.139 13.2984V13.3045Z" fill="#D47F5F"/>
<path opacity="0.62" d="M30.139 13.3107C32.3494 13.3595 34.3033 14.8677 34.3033 17.0781C34.3033 19.2885 32.3494 21.3157 30.139 21.3157C27.9285 21.3157 26.0967 19.5205 26.1334 17.3101C26.1761 15.0692 27.9835 13.2618 30.139 13.3045V13.3107Z" fill="#D58161"/>
<path opacity="0.61" d="M30.1451 13.3107C32.3555 13.3595 34.3094 14.8738 34.3094 17.0842C34.3094 19.2946 32.3555 21.3157 30.1451 21.3157C27.9346 21.3157 26.1028 19.5205 26.1395 17.3101C26.1822 15.0692 27.9896 13.2618 30.1451 13.3045V13.3107Z" fill="#D68364"/>
<path opacity="0.6" d="M30.1451 13.3168C32.3555 13.3656 34.3094 14.886 34.3094 17.0964C34.3094 19.3068 32.3555 21.3279 30.1451 21.3279C27.9346 21.3279 26.1028 19.5328 26.1395 17.3224C26.1822 15.0814 27.9896 13.274 30.1451 13.3168Z" fill="#D68566"/>
<path opacity="0.59" d="M30.1512 13.3229C32.3616 13.3656 34.3094 14.8921 34.3094 17.1025C34.3094 19.3129 32.3616 21.3279 30.1512 21.3279C27.9408 21.3279 26.1089 19.5328 26.1456 17.3224C26.1883 15.0814 27.9957 13.274 30.1512 13.3168V13.3229Z" fill="#D78668"/>
<path opacity="0.58" d="M30.1512 13.329C32.3616 13.3717 34.3094 14.9043 34.3094 17.1147C34.3094 19.3251 32.3616 21.3341 30.1512 21.3341C27.9408 21.3341 26.1089 19.5389 26.1456 17.3285C26.1883 15.0875 27.9957 13.2801 30.1512 13.3229V13.329Z" fill="#D7886B"/>
<path opacity="0.57" d="M30.1573 13.3351C32.3677 13.3778 34.3094 14.9105 34.3094 17.1209C34.3094 19.3313 32.3677 21.3402 30.1573 21.3402C27.9469 21.3402 26.115 19.545 26.1517 17.3346C26.1883 15.0936 28.0018 13.2923 30.1573 13.329V13.3351Z" fill="#D88A6D"/>
<path opacity="0.56" d="M30.1634 13.3412C32.3738 13.3839 34.3155 14.9227 34.3155 17.1331C34.3155 19.3435 32.3738 21.3463 30.1634 21.3463C27.953 21.3463 26.1211 19.5511 26.1578 17.3407C26.1944 15.0997 28.0079 13.2984 30.1634 13.3351V13.3412Z" fill="#D98C6F"/>
<path opacity="0.55" d="M30.1634 13.3473C32.3738 13.39 34.3155 14.9288 34.3155 17.1392C34.3155 19.3496 32.3738 21.3524 30.1634 21.3524C27.953 21.3524 26.1211 19.5572 26.1578 17.3468C26.1944 15.1058 28.0018 13.3045 30.1634 13.3412V13.3473Z" fill="#D98E72"/>
<path opacity="0.55" d="M30.1695 13.3473C32.3799 13.39 34.3155 14.9349 34.3155 17.1453C34.3155 19.3557 32.3799 21.3524 30.1695 21.3524C27.9591 21.3524 26.1272 19.5572 26.1639 17.3468C26.2005 15.1058 28.0079 13.3045 30.1695 13.3412V13.3473Z" fill="#DA9074"/>
<path opacity="0.54" d="M30.1695 13.3534C32.3799 13.3961 34.3155 14.941 34.3155 17.1575C34.3155 19.374 32.3799 21.3646 30.1695 21.3646C27.9591 21.3646 26.1272 19.5694 26.1639 17.359C26.2005 15.1181 28.0079 13.3168 30.1695 13.3534Z" fill="#DB9276"/>
<path opacity="0.53" d="M30.1756 13.3595C32.386 13.4022 34.3155 14.9532 34.3155 17.1636C34.3155 19.374 32.386 21.3646 30.1756 21.3646C27.9652 21.3646 26.1395 19.5694 26.17 17.359C26.2066 15.1181 28.014 13.3168 30.1756 13.3534V13.3595Z" fill="#DB9379"/>
<path opacity="0.52" d="M30.1756 13.3656C32.386 13.4022 34.3155 14.9654 34.3155 17.1758C34.3155 19.3862 32.386 21.3768 30.1756 21.3768C27.9652 21.3768 26.1395 19.5816 26.17 17.3712C26.2066 15.1364 28.014 13.329 30.1756 13.3656Z" fill="#DC957B"/>
<path opacity="0.51" d="M30.1817 13.3717C32.3921 13.4083 34.3216 14.9715 34.3216 17.1819C34.3216 19.3923 32.3921 21.3768 30.1817 21.3768C27.9713 21.3768 26.1456 19.5816 26.1761 17.3712C26.2127 15.1364 28.0201 13.329 30.1817 13.3656V13.3717Z" fill="#DC977D"/>
<path opacity="0.5" d="M30.1878 13.3778C32.3982 13.4144 34.3216 14.9837 34.3216 17.1941C34.3216 19.4045 32.3982 21.3829 30.1878 21.3829C27.9774 21.3829 26.1517 19.5877 26.1822 17.3773C26.2188 15.1425 28.0262 13.3351 30.1878 13.3717V13.3778Z" fill="#DD9980"/>
<path opacity="0.49" d="M30.1878 13.3778C32.3982 13.4145 34.3216 14.9837 34.3216 17.1941C34.3216 19.4045 32.3982 21.3829 30.1878 21.3829C27.9774 21.3829 26.1517 19.5877 26.1822 17.3773C26.2188 15.1425 28.0201 13.3412 30.1878 13.3717V13.3778Z" fill="#DE9B82"/>
<path opacity="0.48" d="M30.1939 13.3839C32.4043 13.4206 34.3216 14.9959 34.3216 17.2063C34.3216 19.4167 32.4043 21.389 30.1939 21.389C27.9835 21.389 26.1578 19.5938 26.1883 17.3834C26.2188 15.1486 28.0262 13.3473 30.1939 13.3778V13.3839Z" fill="#DE9D84"/>
<path opacity="0.47" d="M30.1939 13.39C32.4043 13.4267 34.3216 15.002 34.3216 17.2124C34.3216 19.4229 32.4043 21.3951 30.1939 21.3951C27.9835 21.3951 26.1578 19.5999 26.1883 17.3895C26.2188 15.1547 28.0262 13.3534 30.1939 13.3839V13.39Z" fill="#DF9F86"/>
<path opacity="0.46" d="M30.2 13.3961C32.4104 13.4328 34.3277 15.0143 34.3277 17.2247C34.3277 19.4351 32.4104 21.4012 30.2 21.4012C27.9896 21.4012 26.1639 19.606 26.1944 17.3956C26.2249 15.1608 28.0323 13.3595 30.2 13.39V13.3961Z" fill="#DFA089"/>
<path opacity="0.45" d="M30.2 13.4022C32.4104 13.4389 34.3216 15.0204 34.3216 17.2369C34.3216 19.4534 32.4104 21.4134 30.2 21.4134C27.9896 21.4134 26.1639 19.6182 26.1944 17.4078C26.2249 15.173 28.0323 13.3717 30.2 13.4022Z" fill="#E0A28B"/>
<path opacity="0.45" d="M30.2061 13.4083C32.4165 13.445 34.3277 15.0326 34.3277 17.243C34.3277 19.4534 32.4165 21.4134 30.2061 21.4134C27.9957 21.4134 26.17 19.6182 26.2005 17.4078C26.231 15.173 28.0384 13.3717 30.2061 13.4022V13.4083Z" fill="#E1A48D"/>
<path opacity="0.44" d="M30.2061 13.4083C32.4165 13.4389 34.3277 15.0387 34.3277 17.2491C34.3277 19.4595 32.4226 21.4195 30.2061 21.4195C27.9896 21.4195 26.1761 19.6243 26.2005 17.4139C26.231 15.1791 28.0384 13.3778 30.2061 13.4083Z" fill="#E1A690"/>
<path opacity="0.43" d="M30.2122 13.4144C32.4226 13.445 34.3277 15.0448 34.3277 17.2552C34.3277 19.4656 32.4226 21.4195 30.2122 21.4195C28.0018 21.4195 26.1822 19.6243 26.2066 17.4139C26.2371 15.1791 28.0384 13.3778 30.2122 13.4083V13.4144Z" fill="#E2A892"/>
<path opacity="0.42" d="M30.2183 13.4206C32.4287 13.4511 34.3338 15.057 34.3338 17.2674C34.3338 19.4778 32.4287 21.4256 30.2183 21.4256C28.0079 21.4256 26.1883 19.6304 26.2127 17.42C26.2432 15.1852 28.0445 13.3839 30.2183 13.4144V13.4206Z" fill="#E3AA94"/>
<path opacity="0.41" d="M30.2183 13.4267C32.4287 13.4572 34.3277 15.0631 34.3277 17.2735C34.3277 19.4839 32.4287 21.4318 30.2183 21.4318C28.0079 21.4318 26.1883 19.6366 26.2127 17.4262C26.2432 15.1913 28.0445 13.3961 30.2183 13.4206V13.4267Z" fill="#E3AC97"/>
<path opacity="0.4" d="M30.2244 13.4328C32.4348 13.4633 34.3338 15.0753 34.3338 17.2857C34.3338 19.4961 32.4348 21.4379 30.2244 21.4379C28.014 21.4379 26.1944 19.6427 26.2188 17.4323C26.2493 15.2035 28.0506 13.4022 30.2244 13.4267V13.4328Z" fill="#E4AD99"/>
<path opacity="0.39" d="M30.2244 13.4389C32.4348 13.4694 34.3338 15.0814 34.3338 17.2918C34.3338 19.5022 32.4409 21.444 30.2244 21.444C28.0079 21.444 26.1944 19.6488 26.2188 17.4384C26.2432 15.2096 28.0506 13.4083 30.2244 13.4328V13.4389Z" fill="#E4AF9B"/>
<path opacity="0.38" d="M30.2305 13.4389C32.4409 13.4694 34.3338 15.0875 34.3338 17.2979C34.3338 19.5083 32.4409 21.444 30.2305 21.444C28.0201 21.444 26.2005 19.6488 26.2249 17.4384C26.2493 15.2096 28.0567 13.4083 30.2305 13.4328V13.4389Z" fill="#E5B19E"/>
<path opacity="0.37" d="M30.2305 13.445C32.4409 13.4755 34.3338 15.0997 34.3338 17.3101C34.3338 19.5205 32.4409 21.4562 30.2305 21.4562C28.0201 21.4562 26.2005 19.661 26.2249 17.4506C26.2493 15.2219 28.0567 13.4206 30.2305 13.445Z" fill="#E6B3A0"/>
<path opacity="0.36" d="M30.2367 13.4511C32.4471 13.4816 34.3339 15.1058 34.3339 17.3162C34.3339 19.5266 32.4471 21.4562 30.2367 21.4562C28.0263 21.4562 26.2067 19.661 26.2311 17.4506C26.2555 15.2219 28.0568 13.4206 30.2367 13.445V13.4511Z" fill="#E6B5A2"/>
<path opacity="0.35" d="M30.2367 13.4572C32.4471 13.4816 34.3339 15.118 34.3339 17.3285C34.3339 19.5389 32.4471 21.4623 30.2367 21.4623C28.0263 21.4623 26.2067 19.6671 26.2311 17.4567C26.2555 15.228 28.0568 13.4267 30.2367 13.4511V13.4572Z" fill="#E7B7A5"/>
<path opacity="0.35" d="M30.2427 13.4633C32.4531 13.4877 34.3399 15.1241 34.3399 17.3346C34.3399 19.545 32.4592 21.4684 30.2427 21.4684C28.0262 21.4684 26.2188 19.6732 26.2371 17.4628C26.2616 15.2341 28.0629 13.4328 30.2427 13.4572V13.4633Z" fill="#E8B9A7"/>
<path opacity="0.34" d="M30.2488 13.4694C32.4592 13.4938 34.3399 15.1364 34.3399 17.3468C34.3399 19.5572 32.4592 21.4745 30.2488 21.4745C28.0384 21.4745 26.2249 19.6793 26.2432 17.4689C26.2677 15.2402 28.069 13.4389 30.2488 13.4633V13.4694Z" fill="#E8BAA9"/>
<path opacity="0.33" d="M30.2488 13.4694C32.4592 13.4938 34.3399 15.1364 34.3399 17.3468C34.3399 19.5572 32.4592 21.4745 30.2488 21.4745C28.0384 21.4745 26.2249 19.6793 26.2432 17.4689C26.2677 15.2402 28.069 13.4389 30.2488 13.4633V13.4694Z" fill="#E9BCAC"/>
<path opacity="0.32" d="M30.2549 13.4755C32.4653 13.4999 34.3399 15.1486 34.3399 17.359C34.3399 19.5694 32.4653 21.4806 30.2549 21.4806C28.0445 21.4806 26.231 19.6854 26.2493 17.475C26.2738 15.2463 28.0751 13.4511 30.2549 13.4694V13.4755Z" fill="#E9BEAE"/>
<path opacity="0.31" d="M30.2549 13.4816C32.4653 13.506 34.3399 15.1547 34.3399 17.3712C34.3399 19.5877 32.4653 21.4928 30.2549 21.4928C28.0445 21.4928 26.231 19.6976 26.2493 17.4872C26.2677 15.2585 28.0751 13.4633 30.2549 13.4816Z" fill="#EAC0B0"/>
<path opacity="0.3" d="M30.261 13.4877C32.4715 13.5121 34.346 15.1669 34.346 17.3773C34.346 19.5877 32.4776 21.4928 30.261 21.4928C28.0445 21.4928 26.2371 19.6976 26.2554 17.4872C26.2738 15.2585 28.0751 13.4633 30.261 13.4816V13.4877Z" fill="#EBC2B3"/>
<path opacity="0.29" d="M30.261 13.4938C32.4715 13.5182 34.3399 15.1791 34.3399 17.3895C34.3399 19.5999 32.4715 21.505 30.261 21.505C28.0506 21.505 26.2371 19.7098 26.2554 17.4994C26.2738 15.2707 28.0751 13.4755 30.261 13.4938Z" fill="#EBC4B5"/>
<path opacity="0.28" d="M30.2671 13.4999C32.4776 13.5244 34.346 15.1852 34.346 17.3956C34.346 19.606 32.4776 21.505 30.2671 21.505C28.0567 21.505 26.2432 19.7098 26.2616 17.4994C26.2799 15.2768 28.0812 13.4755 30.2671 13.4938V13.4999Z" fill="#ECC6B7"/>
<path opacity="0.27" d="M30.2671 13.506C32.4776 13.5243 34.3399 15.1974 34.3399 17.4078C34.3399 19.6182 32.4776 21.5111 30.2671 21.5111C28.0567 21.5111 26.2432 19.7159 26.2616 17.5055C26.2799 15.2829 28.0812 13.4816 30.2671 13.4999V13.506Z" fill="#ECC7B9"/>
<path opacity="0.26" d="M30.2733 13.506C32.4837 13.5243 34.346 15.1974 34.346 17.4078C34.346 19.6182 32.4837 21.5111 30.2733 21.5111C28.0628 21.5111 26.2493 19.7159 26.2677 17.5055C26.286 15.2829 28.0873 13.4816 30.2733 13.4999V13.506Z" fill="#EDC9BC"/>
<path opacity="0.25" d="M30.2794 13.5121C32.4898 13.5305 34.3522 15.2096 34.3522 17.42C34.3522 19.6304 32.4898 21.5172 30.2794 21.5172C28.069 21.5172 26.2616 19.722 26.2738 17.5116C26.2921 15.289 28.0934 13.4877 30.2794 13.506V13.5121Z" fill="#EECBBE"/>
<path opacity="0.25" d="M30.2794 13.5183C32.4898 13.5366 34.3461 15.2158 34.3461 17.4262C34.3461 19.6366 32.4898 21.5234 30.2794 21.5234C28.069 21.5234 26.2616 19.7282 26.2738 17.5178C26.2921 15.2951 28.0873 13.4938 30.2794 13.5122V13.5183Z" fill="#EECDC0"/>
<path opacity="0.24" d="M30.2855 13.5244C32.4959 13.5427 34.3522 15.228 34.3522 17.4384C34.3522 19.6488 32.4959 21.5294 30.2855 21.5294C28.0751 21.5294 26.2677 19.7343 26.2799 17.5238C26.2982 15.3012 28.0934 13.506 30.2855 13.5183V13.5244Z" fill="#EFCFC3"/>
<path opacity="0.23" d="M30.2855 13.5305C32.4959 13.5488 34.3461 15.2402 34.3461 17.4506C34.3461 19.661 32.4959 21.5417 30.2855 21.5417C28.0751 21.5417 26.2677 19.7465 26.2799 17.5361C26.2982 15.3134 28.0934 13.5182 30.2855 13.5305Z" fill="#F0D1C5"/>
<path opacity="0.22" d="M30.2916 13.5366C32.502 13.5549 34.3522 15.2463 34.3522 17.4567C34.3522 19.6671 32.502 21.5417 30.2916 21.5417C28.0812 21.5417 26.2738 19.7465 26.286 17.5361C26.2982 15.3134 28.0995 13.5182 30.2916 13.5305V13.5366Z" fill="#F0D2C7"/>
<path opacity="0.21" d="M30.2916 13.5366C32.502 13.5549 34.3522 15.2524 34.3522 17.4628C34.3522 19.6732 32.502 21.5478 30.2916 21.5478C28.0812 21.5478 26.2738 19.7526 26.286 17.5422C26.2982 15.3195 28.0995 13.5243 30.2916 13.5366Z" fill="#F1D4CA"/>
<path opacity="0.2" d="M30.2977 13.5427C32.5081 13.561 34.3522 15.2585 34.3522 17.4689C34.3522 19.6793 32.5081 21.5478 30.2977 21.5478C28.0873 21.5478 26.2799 19.7526 26.2921 17.5422C26.3043 15.3195 28.1056 13.5243 30.2977 13.5366V13.5427Z" fill="#F1D6CC"/>
<path opacity="0.19" d="M30.3038 13.5488C32.5142 13.561 34.3583 15.2707 34.3583 17.4811C34.3583 19.6915 32.5142 21.5539 30.3038 21.5539C28.0934 21.5539 26.286 19.7587 26.2982 17.5483C26.3104 15.3256 28.1117 13.5305 30.3038 13.5427V13.5488Z" fill="#F2D8CE"/>
<path opacity="0.18" d="M30.3038 13.5549C32.5142 13.5671 34.3522 15.2768 34.3522 17.4872C34.3522 19.6976 32.5142 21.56 30.3038 21.56C28.0934 21.56 26.286 19.7648 26.2982 17.5544C26.3104 15.3318 28.1056 13.5366 30.3038 13.5488V13.5549Z" fill="#F3DAD1"/>
<path opacity="0.17" d="M30.3099 13.561C32.5203 13.5732 34.3583 15.289 34.3583 17.4994C34.3583 19.7098 32.5203 21.5661 30.3099 21.5661C28.0995 21.5661 26.2921 19.7709 26.3043 17.5605C26.3165 15.3379 28.1117 13.5427 30.3099 13.5549V13.561Z" fill="#F3DCD3"/>
<path opacity="0.16" d="M30.3099 13.5671C32.5203 13.5793 34.3583 15.2951 34.3583 17.5116C34.3583 19.7282 32.5203 21.5783 30.3099 21.5783C28.0995 21.5783 26.2982 19.7831 26.3043 17.5727C26.3165 15.3562 28.1117 13.5549 30.3099 13.5671Z" fill="#F4DED5"/>
<path opacity="0.15" d="M30.316 13.5671C32.5264 13.5793 34.3583 15.3012 34.3583 17.5116C34.3583 19.722 32.5264 21.5722 30.316 21.5722C28.1056 21.5722 26.3043 19.777 26.3104 17.5666C26.3227 15.3501 28.1178 13.5549 30.316 13.561V13.5671Z" fill="#F4DFD8"/>
<path opacity="0.15" d="M30.316 13.5732C32.5264 13.5854 34.3583 15.3134 34.3583 17.5238C34.3583 19.7342 32.5264 21.5844 30.316 21.5844C28.1056 21.5844 26.3043 19.7892 26.3104 17.5788C26.3227 15.3623 28.1178 13.5671 30.316 13.5732Z" fill="#F5E1DA"/>
<path opacity="0.14" d="M30.3221 13.5793C32.5325 13.5915 34.3644 15.3195 34.3644 17.5299C34.3644 19.7404 32.5387 21.5844 30.3221 21.5844C28.1056 21.5844 26.3104 19.7892 26.3165 17.5788C26.3288 15.3623 28.1239 13.5671 30.3221 13.5732V13.5793Z" fill="#F6E3DC"/>
<path opacity="0.13" d="M30.3221 13.5854C32.5325 13.5976 34.3583 15.3317 34.3583 17.5422C34.3583 19.7526 32.5325 21.5905 30.3221 21.5905C28.1117 21.5905 26.3104 19.7953 26.3165 17.5849C26.3226 15.3684 28.1239 13.5732 30.3221 13.5793V13.5854Z" fill="#F6E5DF"/>
<path opacity="0.12" d="M30.3282 13.5915C32.5386 13.5976 34.3644 15.3379 34.3644 17.5483C34.3644 19.7587 32.5386 21.5966 30.3282 21.5966C28.1178 21.5966 26.3165 19.8014 26.3226 17.591C26.3288 15.3745 28.1239 13.5793 30.3282 13.5854V13.5915Z" fill="#F7E7E1"/>
<path opacity="0.11" d="M30.3343 13.5976C32.5448 13.6037 34.3644 15.3501 34.3644 17.5605C34.3644 19.7709 32.5448 21.6027 30.3343 21.6027C28.1239 21.6027 26.3226 19.8075 26.3288 17.5971C26.3349 15.3806 28.13 13.5854 30.3343 13.5915V13.5976Z" fill="#F8E9E3"/>
<path opacity="0.1" d="M30.3343 13.5976C32.5448 13.6037 34.3644 15.3501 34.3644 17.5605C34.3644 19.7709 32.5448 21.6027 30.3343 21.6027C28.1239 21.6027 26.3226 19.8075 26.3288 17.5971C26.3349 15.3806 28.13 13.5854 30.3343 13.5915V13.5976Z" fill="#F8EBE6"/>
<path opacity="0.09" d="M30.3404 13.6037C32.5509 13.6099 34.3705 15.3623 34.3705 17.5727C34.3705 19.7831 32.557 21.6088 30.3404 21.6088C28.1239 21.6088 26.3287 19.8136 26.3349 17.6032C26.341 15.3867 28.1362 13.5915 30.3404 13.5976V13.6037Z" fill="#F9ECE8"/>
<path opacity="0.08" d="M30.3404 13.6098C32.5508 13.616 34.3644 15.3684 34.3644 17.5849C34.3644 19.8014 32.5508 21.621 30.3404 21.621C28.13 21.621 26.3348 19.8259 26.3348 17.6154C26.3348 15.3989 28.1361 13.6037 30.3404 13.6098Z" fill="#F9EEEA"/>
<path opacity="0.07" d="M30.3465 13.6159C32.5569 13.6159 34.3705 15.3806 34.3705 17.591C34.3705 19.8014 32.5569 21.621 30.3465 21.621C28.1361 21.621 26.3409 19.8258 26.3409 17.6154C26.3409 15.3989 28.1422 13.6098 30.3465 13.6098V13.6159Z" fill="#FAF0EC"/>
<path opacity="0.06" d="M30.3465 13.6221C32.5569 13.6221 34.3643 15.3928 34.3643 17.6032C34.3643 19.8136 32.5569 21.6333 30.3465 21.6333C28.1361 21.6333 26.3409 19.8381 26.3409 17.6277C26.3409 15.4112 28.1422 13.6221 30.3465 13.6221Z" fill="#FBF2EF"/>
<path opacity="0.05" d="M30.3526 13.6282C32.563 13.6282 34.3705 15.3989 34.3705 17.6093C34.3705 19.8198 32.563 21.6333 30.3526 21.6333C28.1422 21.6333 26.347 19.8381 26.347 17.6277C26.347 15.4112 28.1422 13.6221 30.3526 13.6221V13.6282Z" fill="#FBF4F1"/>
<path opacity="0.05" d="M30.3526 13.6343C32.563 13.6343 34.3705 15.4112 34.3705 17.6216C34.3705 19.832 32.5692 21.6394 30.3526 21.6394C28.1361 21.6394 26.347 19.8442 26.347 17.6338C26.347 15.4234 28.1422 13.6282 30.3526 13.6282V13.6343Z" fill="#FCF6F3"/>
<path opacity="0.04" d="M30.3587 13.6343C32.5692 13.6343 34.3705 15.4112 34.3705 17.6216C34.3705 19.832 32.5692 21.6394 30.3587 21.6394C28.1483 21.6394 26.3531 19.8442 26.3531 17.6338C26.3531 15.4234 28.1483 13.6282 30.3587 13.6282V13.6343Z" fill="#FDF8F6"/>
<path opacity="0.03" d="M30.3649 13.6404C32.5753 13.6404 34.3766 15.4234 34.3766 17.6338C34.3766 19.8442 32.5753 21.6455 30.3649 21.6455C28.1544 21.6455 26.3593 19.8503 26.3593 17.6399C26.3593 15.4295 28.1544 13.6343 30.3649 13.6343V13.6404Z" fill="#FDF9F8"/>
<path opacity="0.02" d="M30.3649 13.6465C32.5753 13.6465 34.3704 15.4295 34.3704 17.6399C34.3704 19.8503 32.5753 21.6516 30.3649 21.6516C28.1544 21.6516 26.3593 19.8564 26.3593 17.646C26.3593 15.4356 28.1544 13.6404 30.3649 13.6404V13.6465Z" fill="#FEFBFA"/>
</g>
</g>
</g>
<defs>
<linearGradient id="paint0_linear_2_268" x1="31.5555" y1="19.6305" x2="28.7834" y2="15.289" gradientUnits="userSpaceOnUse">
<stop stop-color="#FF9200"/>
<stop offset="0.21" stop-color="#FF8D00"/>
<stop offset="0.45" stop-color="#FF7F00"/>
<stop offset="0.62" stop-color="#FF7100"/>
<stop offset="0.82" stop-color="#FF5E00"/>
<stop offset="1" stop-color="#FF5200"/>
</linearGradient>
<linearGradient id="paint1_linear_2_268" x1="31.1159" y1="19.5694" x2="27.0676" y2="11.6559" gradientUnits="userSpaceOnUse">
<stop stop-color="#FF7100" stop-opacity="0"/>
<stop offset="0.03" stop-color="#FF6D00" stop-opacity="0.03"/>
<stop offset="0.21" stop-color="#FF5900" stop-opacity="0.25"/>
<stop offset="0.39" stop-color="#FF4800" stop-opacity="0.42"/>
<stop offset="0.56" stop-color="#FF3B00" stop-opacity="0.56"/>
<stop offset="0.72" stop-color="#FF3200" stop-opacity="0.66"/>
<stop offset="0.86" stop-color="#FF2C00" stop-opacity="0.72"/>
<stop offset="0.98" stop-color="#FF2B00" stop-opacity="0.74"/>
</linearGradient>
<clipPath id="clip0_2_268">
<rect width="48" height="9.31179" fill="white" transform="translate(4.56659 12.352)"/>
</clipPath>
</defs>
</svg>
