<svg id="Layer_1" data-name="Layer 1" xmlns="http://www.w3.org/2000/svg" viewBox="0 0 118 37.04"><defs><style>.cls-1{fill:#ed3027;}.cls-2{fill:#fff;}.cls-3{fill:#262626;}</style></defs><path class="cls-1" d="M16.55.48C26.68.48,31.77,5.9,31.77,5.9A71.73,71.73,0,0,1,32,18c-.56,12.2-15.43,19.53-15.43,19.53S1.69,30.19,1.12,18A71.73,71.73,0,0,1,1.33,5.9S6.42.48,16.55.48Z" transform="translate(-1 -0.48)"/><path class="cls-2" d="M9,16.52a7.72,7.72,0,0,1,7.6-7.82,7.61,7.61,0,0,1,7.61,7.61c0,3.34-2.88,6.1-5.1,7.52A13.46,13.46,0,0,0,23.64,25a11,11,0,0,0,4.28-8.69,11.37,11.37,0,1,0-22.73,0A12.57,12.57,0,0,0,9.74,26c2.79,2.41,6.87,4,11.51,4.78a13.16,13.16,0,0,0,3.37-3.16,31.6,31.6,0,0,1-10-2.73C10.86,22.94,9,20.12,9,16.52Z" transform="translate(-1 -0.48)"/><path class="cls-3" d="M50.81,2.29A8.92,8.92,0,0,0,41.9,11.2a9.92,9.92,0,0,0,3.61,7.66,18.53,18.53,0,0,0,9.06,3.84,5.87,5.87,0,0,0,1.83-1.93,24.48,24.48,0,0,1-3.94-.92,5.82,5.82,0,0,0,1-.21,8.77,8.77,0,0,0,6.21-8.44A8.94,8.94,0,0,0,50.81,2.29Zm0,15.26a6.35,6.35,0,1,1,6.34-6.35A6.36,6.36,0,0,1,50.81,17.55Z" transform="translate(-1 -0.48)"/><path class="cls-3" d="M116.68,16.7a1.27,1.27,0,0,1,1-.38,1.3,1.3,0,0,1,1,.38,1.33,1.33,0,0,1,.38,1,1.37,1.37,0,0,1-.38,1,1.34,1.34,0,0,1-1,.38,1.31,1.31,0,0,1-1-.38,1.34,1.34,0,0,1-.39-1A1.3,1.3,0,0,1,116.68,16.7Zm.19,1.78a1.15,1.15,0,0,0,1.55,0,1.1,1.1,0,0,0,.3-.8,1.06,1.06,0,0,0-.3-.79,1.12,1.12,0,0,0-1.55,0,1.06,1.06,0,0,0-.3.79A1.1,1.1,0,0,0,116.87,18.48Zm1.36-1.15a.45.45,0,0,1-.09.28.49.49,0,0,1-.25.17l.39.61H118l-.36-.59h-.18v.59h-.25V16.88h.56a.49.49,0,0,1,.34.12A.42.42,0,0,1,118.23,17.33Zm-.79-.21v.44h.27a.24.24,0,0,0,.18-.06.2.2,0,0,0,.07-.16c0-.15-.08-.22-.25-.22Z" transform="translate(-1 -0.48)"/><path class="cls-3" d="M100.07,15.29l-3-8H94.38l4.39,11.14-1.94,4.62c1.28,0,2.68-.09,3.22-1.44,1.29-3.15,5.75-14.32,5.75-14.32h-2.68Z" transform="translate(-1 -0.48)"/><path class="cls-3" d="M90,19.28s2.48-.05,2.48-1.74V2.38H90Z" transform="translate(-1 -0.48)"/><path class="cls-3" d="M84.85,8.88a4.86,4.86,0,0,0-4-1.9,5.92,5.92,0,0,0-6,6.15,6.36,6.36,0,0,0,1.58,4.29,5.73,5.73,0,0,0,4.38,1.87,4.83,4.83,0,0,0,4-1.9v1.89s2.49,0,2.49-1.74V7.31H84.85Zm-3.72,8.06a3.7,3.7,0,0,1-3.79-3.77v0a3.71,3.71,0,0,1,3.75-3.83,3.61,3.61,0,0,1,3.47,2.24,3.42,3.42,0,0,1,.32,1.61,4.29,4.29,0,0,1-.39,1.62A3.53,3.53,0,0,1,81.13,16.94Z" transform="translate(-1 -0.48)"/><path class="cls-3" d="M70.31,13.8c0,2-1,3.12-2.93,3.14s-2.86-1.09-2.86-3.33V7.31H62v6.8a6,6,0,0,0,1,3.47,4.39,4.39,0,0,0,3.78,1.71h.07a4.14,4.14,0,0,0,3.6-1.65v1.64s2.36,0,2.36-1.65V7.31H70.31Z" transform="translate(-1 -0.48)"/><path class="cls-3" d="M111.77,12c-1.29-.56-2.23-1-2.22-1.79,0-.5.67-1,1.35-.95a2.12,2.12,0,0,1,1.56.93s1.36-1.16,1.53-1.29a3.81,3.81,0,0,0-3.24-1.85,3.45,3.45,0,0,0-3.55,3.34c0,1.64.92,2.31,2.18,3l2.06,1.16c.48.33.71.58.69,1.09a1.48,1.48,0,0,1-1.56,1.38,2.16,2.16,0,0,1-1.66-.85c-1-1-2.46-.53-2.92-.38a5.33,5.33,0,0,0,4.53,3.48,3.91,3.91,0,0,0,4.11-3.79C114.65,14.51,114.19,13.21,111.77,12Z" transform="translate(-1 -0.48)"/><path class="cls-1" d="M47.07,29.33a3.82,3.82,0,0,0-.88-.48A7.58,7.58,0,0,0,45,28.49a4.57,4.57,0,0,1-.83-.25,2.51,2.51,0,0,1-.57-.31,1.17,1.17,0,0,1-.44-.94,1.13,1.13,0,0,1,.23-.72,1.57,1.57,0,0,1,.64-.48,2.48,2.48,0,0,1,2.11.12,2.8,2.8,0,0,1,.88.84l.65-.64a2.71,2.71,0,0,0-1.08-1A3.45,3.45,0,0,0,45,24.78a3.19,3.19,0,0,0-1.4.29,2.59,2.59,0,0,0-1,.79A1.9,1.9,0,0,0,42.26,27a2.26,2.26,0,0,0,.15.85,1.71,1.71,0,0,0,.46.67,2.84,2.84,0,0,0,.77.5,4.8,4.8,0,0,0,1,.34l.77.21a3.86,3.86,0,0,1,.61.26,2,2,0,0,1,.45.3,1.07,1.07,0,0,1,.27.37,1.14,1.14,0,0,1,.08.46,1.07,1.07,0,0,1-.24.69,1.66,1.66,0,0,1-.66.48,2.43,2.43,0,0,1-.92.17A2.88,2.88,0,0,1,43.66,32a3.5,3.5,0,0,1-1.11-1.1l-.65.72a3.42,3.42,0,0,0,1.28,1.15,3.86,3.86,0,0,0,1.78.39,3.52,3.52,0,0,0,1.5-.3,2.38,2.38,0,0,0,1-.83,2.27,2.27,0,0,0,.35-1.27,1.7,1.7,0,0,0-.18-.79A2.15,2.15,0,0,0,47.07,29.33Z" transform="translate(-1 -0.48)"/><path class="cls-1" d="M53.85,27.63A2.55,2.55,0,0,0,53,27a2.77,2.77,0,0,0-1.08-.21,3.1,3.1,0,0,0-1.23.24,2.64,2.64,0,0,0-.95.65,3.08,3.08,0,0,0-.63,1,3.66,3.66,0,0,0-.23,1.3,3.32,3.32,0,0,0,.4,1.62,3,3,0,0,0,1.11,1.11,3.36,3.36,0,0,0,1.63.4,3.13,3.13,0,0,0,.86-.12,3.18,3.18,0,0,0,.81-.32,2.66,2.66,0,0,0,.66-.48l-.45-.63a2.89,2.89,0,0,1-.87.57,2.52,2.52,0,0,1-.93.16A2.42,2.42,0,0,1,50.85,32a2,2,0,0,1-.82-.83,2.51,2.51,0,0,1-.28-1.05h4.83l0-.44a3.13,3.13,0,0,0-.18-1.17A2.64,2.64,0,0,0,53.85,27.63Zm-3.13.29a2.3,2.3,0,0,1,1.17-.28,1.73,1.73,0,0,1,.87.22,1.9,1.9,0,0,1,.66.6,1.77,1.77,0,0,1,.28.89v.09H49.78a2.63,2.63,0,0,1,.2-.72A1.91,1.91,0,0,1,50.72,27.92Z" transform="translate(-1 -0.48)"/><path class="cls-1" d="M57.44,27.94a2.18,2.18,0,0,1,1.14-.3,2.1,2.1,0,0,1,.7.12,2.38,2.38,0,0,1,.65.34,2.16,2.16,0,0,1,.51.49L61,28a2.53,2.53,0,0,0-1-.86,3.3,3.3,0,0,0-1.43-.31,2.91,2.91,0,0,0-1.55.42,3,3,0,0,0-1.07,1.12,3.56,3.56,0,0,0,0,3.24A3.06,3.06,0,0,0,57,32.73a2.91,2.91,0,0,0,1.55.42,3.15,3.15,0,0,0,1.39-.32,2.77,2.77,0,0,0,1-.81l-.5-.62a2.92,2.92,0,0,1-.54.52,2.61,2.61,0,0,1-.62.32,2.26,2.26,0,0,1-.69.11,2.23,2.23,0,0,1-1.94-1.17,2.41,2.41,0,0,1-.3-1.21,2.48,2.48,0,0,1,.29-1.2A2.13,2.13,0,0,1,57.44,27.94Z" transform="translate(-1 -0.48)"/><path class="cls-1" d="M66.28,30.83a1.24,1.24,0,0,1-.13.56,1.89,1.89,0,0,1-.91.85,1.87,1.87,0,0,1-.68.13,1.5,1.5,0,0,1-1.19-.48,2.07,2.07,0,0,1-.43-1.4V26.93h-.88v3.78A3.12,3.12,0,0,0,62.32,32a1.93,1.93,0,0,0,.75.82,2.29,2.29,0,0,0,1.16.29,2.45,2.45,0,0,0,1-.2,2.67,2.67,0,0,0,.77-.56,2.26,2.26,0,0,0,.3-.41V33h.87v-6.1h-.88Z" transform="translate(-1 -0.48)"/><path class="cls-1" d="M71.61,26.82a1.93,1.93,0,0,0-.9.22,2.11,2.11,0,0,0-.69.57,2.49,2.49,0,0,0-.3.52v-1.2h-.88V33h.89V29.47a1.58,1.58,0,0,1,.13-.63,1.71,1.71,0,0,1,.87-.94,1.5,1.5,0,0,1,.67-.15,2,2,0,0,1,.32,0l.33.1.23-1a1.48,1.48,0,0,0-.29-.08A2.22,2.22,0,0,0,71.61,26.82Z" transform="translate(-1 -0.48)"/><rect class="cls-1" x="72.35" y="26.45" width="0.88" height="6.1"/><path class="cls-1" d="M73.78,24.26a.64.64,0,0,0-.47.17.63.63,0,0,0-.17.45.61.61,0,0,0,.17.45.64.64,0,0,0,.47.17.62.62,0,0,0,.48-.18.6.6,0,0,0,.16-.44.61.61,0,0,0-.17-.45A.64.64,0,0,0,73.78,24.26Z" transform="translate(-1 -0.48)"/><polygon class="cls-1" points="76.82 24.89 75.93 24.89 75.93 26.45 74.53 26.45 74.53 27.31 75.93 27.31 75.93 32.55 76.82 32.55 76.82 27.31 78.34 27.31 78.34 26.45 76.82 26.45 76.82 24.89"/><path class="cls-1" d="M83.1,31.66l-.15.4v0c-.05-.12-.09-.22-.14-.32L80.7,26.93h-1l2.79,6.27-1,2.51h1l1-2.63,2.52-6.15h-1Z" transform="translate(-1 -0.48)"/><path class="cls-1" d="M95,29.33a3.82,3.82,0,0,0-.88-.48,7.38,7.38,0,0,0-1.17-.36,4.7,4.7,0,0,1-.82-.25,2.51,2.51,0,0,1-.57-.31,1.17,1.17,0,0,1-.44-.94,1.13,1.13,0,0,1,.23-.72,1.51,1.51,0,0,1,.64-.48,2.48,2.48,0,0,1,2.11.12,2.8,2.8,0,0,1,.88.84l.65-.64a2.71,2.71,0,0,0-1.08-1,3.45,3.45,0,0,0-1.61-.34,3.19,3.19,0,0,0-1.4.29,2.59,2.59,0,0,0-1,.79A1.9,1.9,0,0,0,90.18,27a2.26,2.26,0,0,0,.15.85,1.71,1.71,0,0,0,.46.67,2.84,2.84,0,0,0,.77.5,4.8,4.8,0,0,0,1,.34l.77.21a3.86,3.86,0,0,1,.61.26,2,2,0,0,1,.45.3,1.07,1.07,0,0,1,.27.37,1.34,1.34,0,0,1,.08.46,1.07,1.07,0,0,1-.24.69,1.66,1.66,0,0,1-.66.48,2.43,2.43,0,0,1-.92.17A2.88,2.88,0,0,1,91.58,32a3.5,3.5,0,0,1-1.11-1.1l-.65.72a3.42,3.42,0,0,0,1.28,1.15,3.85,3.85,0,0,0,1.77.39,3.54,3.54,0,0,0,1.51-.3,2.38,2.38,0,0,0,1-.83,2.27,2.27,0,0,0,.35-1.27,1.7,1.7,0,0,0-.18-.79A2.15,2.15,0,0,0,95,29.33Z" transform="translate(-1 -0.48)"/><path class="cls-1" d="M98.71,27.94a2.23,2.23,0,0,1,1.84-.18,2.38,2.38,0,0,1,.65.34,2.16,2.16,0,0,1,.51.49l.51-.6a2.5,2.5,0,0,0-1-.86,3.33,3.33,0,0,0-1.43-.31,2.88,2.88,0,0,0-1.55.42,3,3,0,0,0-1.07,1.12,3.56,3.56,0,0,0,0,3.24,3.06,3.06,0,0,0,1.07,1.13,2.88,2.88,0,0,0,1.55.42,3.18,3.18,0,0,0,1.39-.32,2.77,2.77,0,0,0,1-.81l-.5-.62a2.68,2.68,0,0,1-.55.52,2.37,2.37,0,0,1-.61.32,2.26,2.26,0,0,1-.69.11A2.13,2.13,0,0,1,98.72,32a2.28,2.28,0,0,1-.81-.85A2.52,2.52,0,0,1,97.62,30a2.37,2.37,0,0,1,.29-1.2A2.13,2.13,0,0,1,98.71,27.94Z" transform="translate(-1 -0.48)"/><path class="cls-1" d="M106.92,27.06a2.81,2.81,0,0,0-1.21-.24,3.17,3.17,0,0,0-1.35.29,3.54,3.54,0,0,0-1.15.89l.58.58a2.49,2.49,0,0,1,.83-.7,2.33,2.33,0,0,1,1-.23,1.65,1.65,0,0,1,1.11.36,1.19,1.19,0,0,1,.42.95v.48h-1.54a4.93,4.93,0,0,0-1.14.12,2.21,2.21,0,0,0-.82.36,1.47,1.47,0,0,0-.5.58,1.85,1.85,0,0,0-.17.8,1.65,1.65,0,0,0,.28,1,1.87,1.87,0,0,0,.74.65,2.38,2.38,0,0,0,1,.23,2.44,2.44,0,0,0,1-.2,3.27,3.27,0,0,0,.85-.53c.11-.1.18-.23.28-.34v1h.8V28.8a2,2,0,0,0-.27-1.07A1.79,1.79,0,0,0,106.92,27.06Zm-.16,4.69a2.61,2.61,0,0,1-.75.46,2.39,2.39,0,0,1-.89.17,1.51,1.51,0,0,1-.65-.13,1.07,1.07,0,0,1-.45-.39,1,1,0,0,1-.17-.57,1,1,0,0,1,.11-.48.85.85,0,0,1,.33-.35,1.54,1.54,0,0,1,.52-.22,3,3,0,0,1,.71-.07h1.66v1.06A2.52,2.52,0,0,1,106.76,31.75Z" transform="translate(-1 -0.48)"/><path class="cls-1" d="M114.39,27.89a1.79,1.79,0,0,0-.72-.81,2.51,2.51,0,0,0-2.14,0,2.81,2.81,0,0,0-.82.55,2.48,2.48,0,0,0-.29.37v-1h-.88V33h.88V29.1a1.16,1.16,0,0,1,.14-.52,1.67,1.67,0,0,1,.38-.47,2,2,0,0,1,.58-.35,2.11,2.11,0,0,1,.73-.12,1.62,1.62,0,0,1,.83.16,1.1,1.1,0,0,1,.5.56,2.44,2.44,0,0,1,.17,1V33h.88V29.28A3.5,3.5,0,0,0,114.39,27.89Z" transform="translate(-1 -0.48)"/></svg>