<svg id="Layer_1" data-name="Layer 1" xmlns="http://www.w3.org/2000/svg" viewBox="0 0 512 511.9"><defs><style>.cls-1{fill:#c5c5c5;}.cls-2{fill:#0e7be1;}</style></defs><title>security-flat</title><path class="cls-1" d="M0,452H135.9A241.39,241.39,0,0,1,93.6,315.1V240.6l11.4-2.8a63.44,63.44,0,0,0,46.1-46.1l2.8-11.4H358.1l2.8,11.4A63.44,63.44,0,0,0,407,237.8l11.4,2.8V315a241.39,241.39,0,0,1-42.3,136.9H512V150.1H0Z"/><path class="cls-1" d="M0,0V120.1H512V0ZM90.1,75H60V45H90l.1,30Zm60,0h-30V45h30Zm60.1,0h-30V45h30Zm263.3.4H297.9a15.09,15.09,0,0,1-15.1-15.1h0a15.09,15.09,0,0,1,15.1-15.1H473.4a15.09,15.09,0,0,1,15.1,15.1h0A15,15,0,0,1,473.5,75.4Z"/><path class="cls-2" d="M335.3,210.1H176.7a92,92,0,0,1-53.1,53.1V315A212.54,212.54,0,0,0,256.1,511.9,212.54,212.54,0,0,0,388.6,315V263.2A91.81,91.81,0,0,1,335.3,210.1Zm-79.3,64a54.21,54.21,0,0,1,15,106.3v45.9H241V380.4a54.21,54.21,0,0,1,15-106.3Z"/><path class="cls-2" d="M256,352.5a24.2,24.2,0,1,0-24.2-24.2A24.28,24.28,0,0,0,256,352.5Z"/></svg>